<svg xmlns="http://www.w3.org/2000/svg" xmlns:xlink="http://www.w3.org/1999/xlink" width="61" height="120" viewBox="0 0 61 120">
  <defs>
    <clipPath id="clip-lea2f">
      <rect width="61" height="120"/>
    </clipPath>
  </defs>
  <g id="lea2f" clip-path="url(#clip-lea2f)">
    <g id="Group_2001" data-name="Group 2001" transform="translate(-324.748 -263.599)">
      <g id="Group_1998" data-name="Group 1998">
        <path id="Path_1705" data-name="Path 1705" d="M340.39,329.1c1.213,1.037,3.7,1.958,6.655,3.635a31.377,31.377,0,0,1,9.365,7.749,42.117,42.117,0,0,1,6.982,13.579c1.321,4.156,1.873,7.551,2.712,9.459-.84-1.915-3.005-4.6-5.777-7.743-2.762-3.171-6.133-6.76-9.422-10.929a76.321,76.321,0,0,1-6.312-9.6C342.956,332.408,341.607,330.141,340.39,329.1Z" fill="#60a669"/>
      </g>
      <g id="Group_1999" data-name="Group 1999">
        <path id="Path_1706" data-name="Path 1706" d="M365.427,307.574c.113,1.708,1.06,4.377,1.736,7.971a43.794,43.794,0,0,1,.554,12.813c-.634,5.848-1.73,10.931-2.2,15.355-.51,4.392-.312,8.107.509,10.217-.8-2.075-2.722-5.285-4.007-9.9a43.466,43.466,0,0,1-1.291-16.4,60.25,60.25,0,0,1,2.927-12.287C364.727,312.008,365.542,309.3,365.427,307.574Z" fill="#60a669"/>
      </g>
      <g id="Group_2000" data-name="Group 2000">
        <path id="Path_1707" data-name="Path 1707" d="M336.748,352.311c1.076.051,2.8-.8,5.215-1.271a14.982,14.982,0,0,1,8.655.623,18.63,18.63,0,0,1,4.97,3.075,21.65,21.65,0,0,1,3.418,3.8c1.813,2.535,2.7,4.8,3.641,5.84-.949-1.056-3.144-2.114-5.807-3.074-2.669-1-5.755-1.849-8.867-3.133a40.124,40.124,0,0,1-6.582-3.665C339.5,353.282,337.833,352.359,336.748,352.311Z" fill="#60a669"/>
      </g>
    </g>
  </g>
</svg>
