<svg xmlns="http://www.w3.org/2000/svg" xmlns:xlink="http://www.w3.org/1999/xlink" width="208" height="120" viewBox="0 0 208 120">
  <defs>
    <linearGradient id="linear-gradient" x1="0.5" y1="-0.178" x2="0.5" y2="1.686" gradientUnits="objectBoundingBox">
      <stop offset="0" stop-color="#60a669"/>
      <stop offset="1" stop-color="#366379"/>
    </linearGradient>
    <linearGradient id="linear-gradient-2" x1="0.5" y1="-0.553" x2="0.5" y2="2.135" xlink:href="#linear-gradient"/>
    <linearGradient id="linear-gradient-3" x1="0.5" y1="0.064" x2="0.5" y2="1.561" xlink:href="#linear-gradient"/>
    <clipPath id="clip-leaf">
      <rect width="208" height="120"/>
    </clipPath>
  </defs>
  <g id="leaf" clip-path="url(#clip-leaf)">
    <g id="Group_2012" data-name="Group 2012" transform="translate(-447.878 -276.199)">
      <g id="Group_2007" data-name="Group 2007">
        <path id="Path_1710" data-name="Path 1710" d="M484.329,334.54a39.4,39.4,0,0,1,4.1,13.72,47.761,47.761,0,0,1-.314,12.552,47.1,47.1,0,0,1-1.038,5.014c-.375,1.483-.785,2.774-1.166,3.837-.749,2.12-1.315,3.315-1.315,3.315s-1.147-.711-2.937-2l-3.139-2.325c-1.181-.9-2.446-1.926-3.811-3.036a87.379,87.379,0,0,1-8.339-7.819,43.358,43.358,0,0,1-11.38-21.619,87.36,87.36,0,0,1-1.725-11.3c-.143-1.754-.273-3.378-.346-4.86-.052-1.469-.1-2.792-.14-3.9-.049-2.2.015-3.553.015-3.553s1.3.21,3.477.792c1.092.288,2.388.681,3.824,1.212a47.137,47.137,0,0,1,4.721,1.982,47.789,47.789,0,0,1,10.524,6.846A39.4,39.4,0,0,1,484.329,334.54Z" fill="url(#linear-gradient)"/>
        <g id="Group_2006" data-name="Group 2006">
          <path id="Path_1711" data-name="Path 1711" d="M477.158,325.088l-.542-.531c-.3,1.068-.659,2.471-.99,4.1-.348,1.639-.688,3.513-.908,5.507a40.114,40.114,0,0,0,.366,13.022c-1.848-3.918-3.874-7.752-6.026-11.51a21.422,21.422,0,0,1-1.956-4.742,27.879,27.879,0,0,1-.845-4.835,39.737,39.737,0,0,1-.088-4.623c.062-1.469.213-2.855.359-4.061l-.618-.32c-.494,3.85-.824,9.3.707,14.452a171.348,171.348,0,0,0-13.344-18.894l-.481-.089h0l-.016.494a170.775,170.775,0,0,1,13.293,18.823,23.69,23.69,0,0,0-12.694-5.86l.071.64a25.929,25.929,0,0,1,3.788.895,22.687,22.687,0,0,1,4.128,1.716,18.948,18.948,0,0,1,3.941,2.76,15.828,15.828,0,0,1,3.2,3.963c2.144,3.744,4.163,7.563,6,11.467a25.884,25.884,0,0,0-10.218-7.442,35.866,35.866,0,0,0-5.033-1.648,37.283,37.283,0,0,0-3.919-.71l.171.64a32.915,32.915,0,0,1,10.743,3.335,22.387,22.387,0,0,1,10.48,10.67c.7,1.588,1.357,3.2,2.023,4.8.619,1.621,1.29,3.224,1.866,4.861a27.12,27.12,0,0,0-11.967-9.527,33.427,33.427,0,0,0-8.227-2.349l.429.677A33.747,33.747,0,0,1,471.24,354.4c4.463,2.454,9.141,6.592,11.137,12.6.653,1.888,1.213,3.806,1.8,5.715l.416.266.2-.447c-.589-1.917-1.152-3.841-1.807-5.737-1.986-5.979-1.5-12.107-.428-17.384a62.38,62.38,0,0,1,3.432-11.19l-.36-.87a60.488,60.488,0,0,0-2.919,8.6,42.954,42.954,0,0,0-1.491,15.8c-.579-1.644-1.252-3.252-1.873-4.88-.67-1.609-1.329-3.222-2.032-4.816a32.313,32.313,0,0,1-2.214-15.215A62.809,62.809,0,0,1,477.158,325.088Z" fill="#366379"/>
        </g>
      </g>
      <g id="Group_2009" data-name="Group 2009">
        <path id="Path_1712" data-name="Path 1712" d="M514.124,350.872a35.728,35.728,0,0,1-6.737,6.659,69.429,69.429,0,0,1-7.29,4.911c-1.173.679-2.259,1.307-3.265,1.849l-2.668,1.4c-1.516.769-2.475,1.175-2.475,1.175s-.29-.976-.608-2.682a30.855,30.855,0,0,1-.43-3.066,35.454,35.454,0,0,1-.186-3.95,36.446,36.446,0,0,1,1.308-9.62,28.481,28.481,0,0,1,13.162-17.316,36.422,36.422,0,0,1,8.918-3.835,35.7,35.7,0,0,1,3.856-.879c1.162-.212,2.2-.336,3.069-.406,1.728-.149,2.747-.131,2.747-.131s-.135,1.033-.47,2.7l-.63,2.944c-.253,1.115-.568,2.328-.908,3.64a69.14,69.14,0,0,1-2.78,8.339A35.7,35.7,0,0,1,514.124,350.872Z" fill="url(#linear-gradient-2)"/>
        <g id="Group_2008" data-name="Group 2008">
          <path id="Path_1713" data-name="Path 1713" d="M518.073,344.138l.211-.463a26.153,26.153,0,0,0-7.1.624,19.749,19.749,0,0,0-8.709,4.36c1.888-2.74,3.909-5.389,6.021-7.96,3.481-4.247,9.082-5.183,12.648-5.114l.138-.476a18.083,18.083,0,0,0-10.407,2.777,124.294,124.294,0,0,1,12.6-12.533l.054-.377h0l-.377,0A124.755,124.755,0,0,0,510.5,337.56a28.018,28.018,0,0,0,2.444-10.9l-.512.162c-.187,3.815-.885,9.366-4.321,13.562-2.12,2.582-4.149,5.24-6.045,7.992A31.434,31.434,0,0,0,504,338.509a51.342,51.342,0,0,0-.193-7.561l-.482.335a49.544,49.544,0,0,1,.041,9.209,25.239,25.239,0,0,1-3.6,11.308c-1.457,2.258-2.853,4.557-4.16,6.9a33.665,33.665,0,0,0,.813-12.223,47.778,47.778,0,0,0-1.132-6.921l-.387.62a49.051,49.051,0,0,1,1.2,8.96,26.357,26.357,0,0,1-2.452,13.2c-.727,1.366-1.383,2.766-2.06,4.157l.1.364.349-.153c.674-1.385,1.328-2.781,2.052-4.141a17.707,17.707,0,0,1,10.006-8.223,25.682,25.682,0,0,1,8.348-1.451l.41-.458a25.394,25.394,0,0,0-6.545.741,20.679,20.679,0,0,0-10.273,5.771c1.3-2.339,2.692-4.628,4.143-6.878a17.111,17.111,0,0,1,9.308-6.792A25.037,25.037,0,0,1,518.073,344.138Z" fill="#366379"/>
        </g>
      </g>
      <g id="Group_2011" data-name="Group 2011" transform="translate(44)">
        <path id="Path_1714" data-name="Path 1714" d="M598.092,349.917a51.144,51.144,0,0,1-14.815,13.817,57.073,57.073,0,0,1-8.272,4.17c-1.369.55-2.7,1.057-4.013,1.49-1.335.412-2.631.773-3.878,1.09a53.026,53.026,0,0,1-6.934,1.3q-1.567.2-2.929.314c-.924.054-1.774.086-2.541.1a47.135,47.135,0,0,1-4.839-.1s.374-1.8,1.146-4.673c.2-.71.415-1.491.649-2.333s.472-1.765.731-2.731l1.809-6.238c.331-1.116.686-2.251,1.068-3.4.361-1.168.727-2.369,1.133-3.558.842-2.35,1.643-4.858,2.658-7.24a62.167,62.167,0,0,1,18-25.846c1.883-1.778,3.958-3.4,5.87-5,.974-.794,1.974-1.553,2.944-2.3.942-.755,1.885-1.481,2.816-2.179l5.224-3.859,2.308-1.633,1.964-1.418c2.422-1.718,3.985-2.695,3.985-2.695a46.907,46.907,0,0,1,1.772,4.505c.25.725.514,1.533.784,2.419q.366,1.316.722,2.856a53.037,53.037,0,0,1,1.187,6.953q.2,1.92.323,4.016c.049,1.382.035,2.8-.007,4.281a57.02,57.02,0,0,1-1.043,9.2A51.139,51.139,0,0,1,598.092,349.917Z" fill="url(#linear-gradient-3)"/>
        <g id="Group_2010" data-name="Group 2010">
          <path id="Path_1715" data-name="Path 1715" d="M605.084,334.632l.282-1.032c-1.482.4-3.4.97-5.566,1.71-2.2.718-4.687,1.584-7.22,2.653a65.228,65.228,0,0,0-15.586,8.64,136.1,136.1,0,0,0,10.127-14.428,25.375,25.375,0,0,1,2.058-2.882,26.382,26.382,0,0,1,2.27-2.584,44.385,44.385,0,0,1,5.108-4.327c1.811-1.263,3.584-2.415,5.339-3.414s3.488-1.843,4.979-2.586c-.025-.322-.049-.645-.073-.964C602,317.761,595.44,321.3,590.4,326.55A140.374,140.374,0,0,0,602.448,297.6l-.27-.6h0l-.566.363a139.532,139.532,0,0,1-11.974,28.769c1.786-7.107-.065-14.125-2.148-18.607l-.671.523a30.007,30.007,0,0,1,1.717,4.9,26.8,26.8,0,0,1,.934,5.92,23.1,23.1,0,0,1-.525,6.46,25.068,25.068,0,0,1-.973,3.26,22.369,22.369,0,0,1-1.592,3.129,135.4,135.4,0,0,1-10.066,14.341,26.576,26.576,0,0,0,1.6-4.261,36.414,36.414,0,0,0,.888-4.31,35.883,35.883,0,0,0,.07-8.2,43.029,43.029,0,0,0-1.411-6.919A44.857,44.857,0,0,0,575.6,317.4l-.619.592a37.867,37.867,0,0,1,2.094,6.11,36.041,36.041,0,0,1,1.147,8.5,31.145,31.145,0,0,1-1.346,9.722,32.01,32.01,0,0,1-2.058,4.809,26.961,26.961,0,0,1-3.14,4.457c-1.554,1.763-3.184,3.459-4.8,5.169l-2.511,2.475c-.83.832-1.673,1.651-2.556,2.428,4.321-6.432,5.337-14,5.005-19.857a43.505,43.505,0,0,0-1.125-7.441,32.57,32.57,0,0,0-1.138-3.717l-.518.887a36.524,36.524,0,0,1,1.373,5.45,38.664,38.664,0,0,1,.537,4.2,42.873,42.873,0,0,1,.025,4.853,31.3,31.3,0,0,1-.73,5.271c-.2.9-.428,1.811-.7,2.725-.3.889-.636,1.782-1.018,2.672s-.808,1.776-1.279,2.654a26.072,26.072,0,0,1-1.629,2.515,30.557,30.557,0,0,1-1.926,2.4,27.165,27.165,0,0,1-2.3,2.149c-2.047,1.771-4.23,3.37-6.374,5.019l-.143.657.659.044c2.158-1.66,4.355-3.27,6.415-5.051.822-.69,1.678-1.314,2.541-1.906.843-.616,1.709-1.181,2.595-1.7s1.8-.99,2.7-1.45,1.8-.9,2.726-1.294,1.856-.758,2.8-1.09q1.374-.534,2.764-.984c1.842-.609,3.736-1.075,5.492-1.549,1.777-.455,3.519-.827,5.174-1.135s3.158-.6,4.559-.813c2.779-.439,5.03-.641,6.213-.768l.867-1.018c-.556.031-2.053.19-4.248.469s-5.018.725-8.153,1.378c-6.34,1.293-13.846,3.288-20.568,7.078.888-.782,1.736-1.606,2.572-2.443l2.526-2.491c1.622-1.72,3.263-3.426,4.826-5.2a34.179,34.179,0,0,1,3.938-3.843,35.414,35.414,0,0,1,4.281-3.2,62.637,62.637,0,0,1,9.038-4.949c3.068-1.346,5.992-2.507,8.681-3.418C600.982,335.866,603.278,335.118,605.084,334.632Z" fill="#366379"/>
        </g>
      </g>
    </g>
  </g>
</svg>
