<svg xmlns="http://www.w3.org/2000/svg" xmlns:xlink="http://www.w3.org/1999/xlink" width="174" height="500" viewBox="0 0 174 500">
  <defs>
    <clipPath id="clip-path">
      <rect id="Rectangle_173" data-name="Rectangle 173" width="174" height="500" fill="#fff" stroke="#707070" stroke-width="1"/>
    </clipPath>
    <linearGradient id="linear-gradient" x1="0.5" y1="0.397" x2="0.5" y2="-0.256" gradientUnits="objectBoundingBox">
      <stop offset="0" stop-color="#abc7eb"/>
      <stop offset="1" stop-color="#abc7eb" stop-opacity="0"/>
    </linearGradient>
    <linearGradient id="linear-gradient-2" x1="-4.212" y1="-15.852" x2="-4.677" y2="-16.639" gradientUnits="objectBoundingBox">
      <stop offset="0" stop-color="#ffd1c0"/>
      <stop offset="1" stop-color="#ff8b65"/>
    </linearGradient>
    <linearGradient id="linear-gradient-3" x1="6.918" y1="1.755" x2="6.918" y2="-1.871" gradientUnits="objectBoundingBox">
      <stop offset="0" stop-color="#ffda6b"/>
      <stop offset="1" stop-color="#ffedb5"/>
    </linearGradient>
    <linearGradient id="linear-gradient-4" x1="22.826" y1="1.474" x2="24.147" y2="0.089" gradientUnits="objectBoundingBox">
      <stop offset="0" stop-color="#5c5c5c"/>
      <stop offset="1" stop-color="#9b9b9b"/>
    </linearGradient>
    <linearGradient id="linear-gradient-5" x1="18.531" y1="0.934" x2="19.586" y2="-0.302" xlink:href="#linear-gradient-4"/>
    <linearGradient id="linear-gradient-6" x1="-8.585" y1="1.397" x2="-8.585" y2="0.104" xlink:href="#linear-gradient-3"/>
    <linearGradient id="linear-gradient-7" x1="-13.188" y1="-0.821" x2="-13.403" y2="2.296" gradientUnits="objectBoundingBox">
      <stop offset="0" stop-color="#fff" stop-opacity="0"/>
      <stop offset="1" stop-color="#fff"/>
    </linearGradient>
    <linearGradient id="linear-gradient-8" x1="-29.616" y1="0.959" x2="-29.486" y2="0.355" xlink:href="#linear-gradient-2"/>
    <linearGradient id="linear-gradient-9" x1="-17.529" y1="-17.869" x2="-16.977" y2="-18.431" xlink:href="#linear-gradient-2"/>
    <linearGradient id="linear-gradient-10" x1="0.5" y1="0.927" x2="0.5" y2="0.059" gradientUnits="objectBoundingBox">
      <stop offset="0" stop-color="#c76752"/>
      <stop offset="1" stop-color="#ff8b65"/>
    </linearGradient>
    <linearGradient id="linear-gradient-11" x1="0.5" y1="0.927" x2="0.5" y2="0.059" gradientUnits="objectBoundingBox">
      <stop offset="0" stop-color="#ffdf80"/>
      <stop offset="1" stop-color="#fff2ca"/>
    </linearGradient>
    <linearGradient id="linear-gradient-12" x1="-20.13" y1="8.338" x2="-14.368" y2="10.441" xlink:href="#linear-gradient-2"/>
    <linearGradient id="linear-gradient-13" x1="-40.432" y1="7.588" x2="-28.407" y2="9.996" xlink:href="#linear-gradient-2"/>
    <linearGradient id="linear-gradient-14" x1="-114.966" y1="3.565" x2="-114.108" y2="3.078" xlink:href="#linear-gradient-2"/>
    <linearGradient id="linear-gradient-15" x1="-4.501" y1="-18.877" x2="-5.022" y2="-19.663" xlink:href="#linear-gradient-2"/>
    <linearGradient id="linear-gradient-16" x1="-15.182" y1="3.688" x2="-15.182" y2="0.083" xlink:href="#linear-gradient-3"/>
    <linearGradient id="linear-gradient-17" x1="94.914" y1="71.996" x2="96.184" y2="72.445" xlink:href="#linear-gradient-2"/>
    <linearGradient id="linear-gradient-18" x1="-41.627" y1="-0.326" x2="-36.633" y2="1.473" xlink:href="#linear-gradient-2"/>
    <linearGradient id="linear-gradient-19" x1="-59.318" y1="-1.17" x2="-51.845" y2="1.28" xlink:href="#linear-gradient-2"/>
    <linearGradient id="linear-gradient-20" x1="72.479" y1="11.384" x2="72.274" y2="10.425" xlink:href="#linear-gradient-2"/>
    <linearGradient id="linear-gradient-21" x1="65.049" y1="14.264" x2="65.431" y2="13.309" gradientUnits="objectBoundingBox">
      <stop offset="0" stop-color="#773129"/>
      <stop offset="1" stop-color="#b97a66"/>
    </linearGradient>
    <linearGradient id="linear-gradient-22" x1="253.9" y1="38.423" x2="253.191" y2="35.112" xlink:href="#linear-gradient-2"/>
    <linearGradient id="linear-gradient-23" y1="0.5" x2="1" y2="0.5" gradientUnits="objectBoundingBox">
      <stop offset="0" stop-color="#c5c9ed"/>
      <stop offset="1" stop-color="#c5c9ed" stop-opacity="0"/>
    </linearGradient>
    <clipPath id="clip-man1">
      <rect width="174" height="500"/>
    </clipPath>
  </defs>
  <g id="man1" clip-path="url(#clip-man1)">
    <g id="Mask_Group_1" data-name="Mask Group 1" clip-path="url(#clip-path)">
      <g id="Group_2170" data-name="Group 2170" transform="translate(-92.692 42.301)">
        <path id="Path_1916" data-name="Path 1916" d="M203.586,392.692h0l-1.3-9.729,3.051-1.366L200.9,356.375h52.973V329.906l4.937-2.316c-.415-5.151-1.4-13.952-1.584-15.914l-2.845-.129a29.709,29.709,0,0,1,4.794-4.168c.144-1.065-1.239-1.574-4.023-.918a4.234,4.234,0,0,0-1.279.677V276.753H215.036l-6.573-22.314-9.642-7v-.061l-1.146-.77-.16-.116,0,.006-7.656-5.149-7.772-9.313-.079,4.034-.1-.064.022-6.569a12.615,12.615,0,0,0,6.138-1.046c.027-.012.054-.02.081-.032a12.447,12.447,0,0,0,1.27-.673c.064-.038.132-.068.2-.107a12.564,12.564,0,0,0,1.342-.962c.378-.312.768-.648,1.165-1,.7-.62,1.421-1.3,2.154-2.045q.574-.585,1.153-1.224a40.5,40.5,0,0,0,4.494-5.973c.2-.319.387-.662.573-1.026.062-.121.12-.257.181-.383.122-.252.244-.5.361-.773.07-.16.135-.334.2-.5.105-.255.209-.506.31-.774.07-.186.136-.384.2-.576.094-.267.189-.53.28-.807.067-.205.132-.42.2-.631.088-.281.176-.561.26-.852.064-.219.124-.445.186-.669.082-.3.165-.594.244-.9.059-.228.116-.463.173-.695.078-.315.156-.63.231-.953.054-.233.106-.47.159-.706.075-.336.149-.671.22-1.013.049-.232.1-.466.143-.7.072-.356.143-.713.212-1.074q.064-.342.128-.685l.008-.045.009-.048q.095-.522.187-1.048c.038-.218.074-.436.111-.655.059-.352.118-.705.174-1.06l.024-.15h0q.048-.3.1-.607.1-.646.193-1.295.039-.267.077-.534c.066-.465.129-.928.191-1.393.019-.148.039-.3.058-.444q.1-.747.188-1.489l.042-.345q.1-.813.188-1.617c.007-.064.014-.128.022-.192q.1-.882.187-1.75l0-.033v0c.687-6.68.995-12.555,1.106-15.085a44.859,44.859,0,0,1,7.628,4.125c3.22,2.166,6.233-3.041,3.035-5.191a49.811,49.811,0,0,0-6.418-3.653,61.492,61.492,0,0,0-3.72-14.61h0c-.324-.807-.671-1.589-1.03-2.358q-.106-.229-.216-.456a41.122,41.122,0,0,0-2.431-4.381c-.085-.133-.172-.263-.259-.394q-.59-.9-1.22-1.748c-.065-.087-.127-.177-.193-.264q-.723-.954-1.5-1.844c-.086-.1-.175-.192-.262-.29q-.669-.748-1.377-1.449c-.113-.111-.224-.225-.338-.335-.558-.536-1.129-1.053-1.721-1.544-.054-.045-.11-.085-.164-.129-.537-.44-1.091-.857-1.657-1.259-.149-.106-.3-.211-.449-.314-.618-.422-1.246-.829-1.9-1.205l-.032-.02c-.662-.382-1.346-.734-2.042-1.07-.172-.083-.347-.162-.521-.242q-.89-.408-1.814-.765c-.128-.049-.252-.1-.38-.151-.729-.27-1.476-.513-2.237-.735-.176-.051-.357-.1-.534-.144q-.942-.256-1.915-.464c-.2-.041-.387-.086-.584-.124-.8-.157-1.616-.292-2.449-.4-.142-.018-.288-.029-.431-.046q-1.072-.123-2.18-.19c-.236-.015-.473-.029-.711-.04-.882-.039-1.774-.061-2.689-.047-.734.012-1.466.048-2.2.1-.228.016-.453.041-.68.061-.508.044-1.014.1-1.518.159-.253.032-.5.068-.755.105-.492.071-.98.152-1.467.242-.234.043-.467.085-.7.132q-.839.171-1.664.379c-.147.036-.3.068-.442.106a38.128,38.128,0,0,0-4.2,1.366c-.129.051-.256.106-.384.158q-.837.337-1.654.714-.2.094-.407.192-.848.4-1.668.851c-.087.047-.174.091-.259.139a34,34,0,0,0-5.538,3.823l-.041.035q-.837.714-1.622,1.483l-.069.068a31.184,31.184,0,0,0-5.532,7.315h0c-3.923,7.191-5.283,16.431-2.554,27.42a6.865,6.865,0,0,0,1.125.132l2.3,8.048c-3.68-.244-5.6,3.885-4.986,7.1a18.064,18.064,0,0,0,3.972,7.656,25.121,25.121,0,0,0,10.855,7.832,23.591,23.591,0,0,0,3.18,5.4c.492.721,1.017,1.4,1.556,2.06l-.128,13.53-.027-.124-4,4.726-1.944,4.931-16.01,9.939-7.85,3.711-14.49,42.3-.9,2.615h0l12.022,4.85-12.95,52.81,8.148,3.091,13.7-5.9-5.524,21.866h0l2.8,1.023-3.95,10.011h0L123.119,397.7l7.555,108.428L109.2,569.087,103.272,654.1c-.279.136-.557.272-.821.4h0a5.157,5.157,0,0,0-.553-1.911.685.685,0,0,0-.562-.378.725.725,0,0,0-.6.227.626.626,0,0,0-.157.432c.006.766-.016,1.531-.057,2.3h0a37.905,37.905,0,0,1-3.68,14.356c-1.682,3.5-3.958,6.2-4.24,9.613,0,.045,0,.091-.008.136q-.027.417-.013.849c0,.083,0,.167.01.251a9.01,9.01,0,0,0,.119,1.043l7.82.429,15.451.846a4.925,4.925,0,0,0,5.293-4.491,4.862,4.862,0,0,0,0-.526c-.366-6.317-.779-16.6-1.015-21.584-.014-.3-.027-.579-.04-.836a.718.718,0,0,0-1.286-.362l-.517.685a.424.424,0,0,0,.029-.444l27.942-107.389,11.522-14.94,6.928-19.06,6.544-54.569,16.438,61.99,2.553,46.259,18.457,85.059c-.373-.363-.6-.615-.6-.615a6.95,6.95,0,0,0-1.477,2.245,7.484,7.484,0,0,0-.419,4.57c.553,2.646-.623,7.664-1.589,11.064-.586,2.061-1.091,3.526-1.091,3.526s-.252,1.688,5.663,2.173l6.836-.307c2.274-.47,3.934-1.221,6.269-1.639,3.545-.637,5.254.779,5.6,1.107.046.043.066.066.066.066l29.04-1.3c.684-1.095-.129-3.526-.9-5.307a4.166,4.166,0,0,0-2.832-2.409c-3.121-.771-9.228-1.307-15.018-6.186-3.257-2.738-15.58-9.91-15.58-9.91l-.064-.012a1.275,1.275,0,0,0-.455.173l-5.8-107.4,4.31-21.28M136.11,321.089l.452,16.384-4.781,1.293Z" fill="url(#linear-gradient)" style="mix-blend-mode: multiply;isolation: isolate"/>
        <g id="Group_2169" data-name="Group 2169">
          <g id="Group_2131" data-name="Group 2131">
            <g id="Group_2128" data-name="Group 2128">
              <g id="Group_2127" data-name="Group 2127">
                <path id="Path_1917" data-name="Path 1917" d="M215.19,322.524,197.92,267.194l-13.813,4.377,23.394,75.12,8.574-1.558,29.85-41.655-7.993-4.674Z" fill="url(#linear-gradient-2)"/>
                <path id="Path_1918" data-name="Path 1918" d="M192.573,298.291l13.68-4.43-8.333-26.667-13.813,4.377Z" fill="#ffb299" style="mix-blend-mode: multiply;isolation: isolate"/>
                <path id="Path_1919" data-name="Path 1919" d="M237.933,298.805,215.19,322.524l-8.936-28.662-4.434,1.788,8.939,29.806-.941,11.394,4.319-9.182Z" fill="#fff" opacity="0.8" style="mix-blend-mode: soft-light;isolation: isolate"/>
              </g>
            </g>
            <g id="Group_2130" data-name="Group 2130">
              <path id="Path_1920" data-name="Path 1920" d="M201.588,253.439l12.6,42.79-33.684,12.027-6.083-16.472,16.215-46.289Z" fill="url(#linear-gradient-3)"/>
              <g id="Group_2129" data-name="Group 2129">
                <path id="Path_1921" data-name="Path 1921" d="M200.159,289.049c-7.635,3.518-15.094,7.4-22.657,11.066l3.006,8.141,33.684-12.027-3.534-12Q205.409,286.642,200.159,289.049Z" fill="#2e2933"/>
              </g>
              <path id="Path_1922" data-name="Path 1922" d="M197.792,259.192l-9.246-8.444,2.095-5.253,10.947,7.945,12.6,42.79-5.17,1.874Z" fill="#fff" style="mix-blend-mode: soft-light;isolation: isolate"/>
            </g>
          </g>
          <g id="Group_2139" data-name="Group 2139">
            <g id="Group_2134" data-name="Group 2134">
              <g id="Group_2132" data-name="Group 2132">
                <path id="Path_1923" data-name="Path 1923" d="M193.416,367.115l20.5,152.925L209.6,541.32l6,111.175-12.009,6.55-20.1-92.623-2.552-46.259-38.238-144.2,35.214-17.451Z" fill="url(#linear-gradient-4)"/>
                <path id="Path_1924" data-name="Path 1924" d="M180.634,397.289l18.05,102.871,12.836,4.815-.362-5.49L196.71,391.692Z" fill="#fff" opacity="0.3" style="mix-blend-mode: soft-light;isolation: isolate"/>
                <path id="Path_1925" data-name="Path 1925" d="M210.523,655.267l-21.775-93.355-1.234-36.473,3.819-4.686-5.356-2.633,8.076-8.571-7.639.343-10.394-52.069.989-98.857-34.3,17,38.238,144.2,2.552,46.259,20.1,92.623Z" fill="#333"/>
                <path id="Path_1926" data-name="Path 1926" d="M193.416,367.115l-15.5-8.6-35.214,17.451,27.038,101.962,11.638-90.422Z" fill="#333"/>
              </g>
              <g id="Group_2133" data-name="Group 2133">
                <path id="Path_1927" data-name="Path 1927" d="M202.438,674.446l6.836-.307c2.274-.47,3.935-1.221,6.269-1.639,3.545-.637,5.254.779,5.6,1.107.046.043.066.066.066.066l29.041-1.3c.683-1.095-.129-3.526-.9-5.307a4.164,4.164,0,0,0-2.832-2.409c-3.12-.771-9.228-1.307-15.017-6.186-3.258-2.738-15.58-9.91-15.58-9.91l-.065-.012c-.262.017-1.5.465-6.734,5.4-2.708,2.544-7.769-3.074-7.769-3.074a6.983,6.983,0,0,0-1.477,2.245,7.484,7.484,0,0,0-.419,4.57c.553,2.646-.623,7.664-1.588,11.064-.587,2.061-1.092,3.526-1.092,3.526S196.524,673.961,202.438,674.446Z" fill="#2e2933"/>
                <path id="Path_1928" data-name="Path 1928" d="M199.874,653.113c1.685,1.1,5.234,3.252,7.533,3.453,3.1.273,8.512-8.008,8.512-8.008l-.065-.012c-.262.017-1.5.465-6.734,5.4-2.708,2.544-7.769-3.074-7.769-3.074A6.983,6.983,0,0,0,199.874,653.113Z" fill="#ffd561"/>
                <path id="Path_1929" data-name="Path 1929" d="M202.438,674.446l6.836-.307c2.274-.47,3.935-1.221,6.269-1.639,3.545-.637,5.254.779,5.6,1.107.046.043.066.066.066.066l29.041-1.3c.683-1.095-.129-3.526-.9-5.307-.917-.759-.974,3.521-1.431,4.223s-23.679,1.311-25.064.379-5.482-2.49-11.024-.873c-4.824,1.405-12.148-1.315-13.962-2.045-.587,2.061-1.092,3.526-1.092,3.526S196.524,673.961,202.438,674.446Z" fill="#ffd561"/>
              </g>
            </g>
            <g id="Group_2138" data-name="Group 2138">
              <g id="Group_2135" data-name="Group 2135">
                <path id="Path_1930" data-name="Path 1930" d="M123.8,505.125,116.243,396.7l18.169-46.052,42.633,2.978L157.961,512.744l-6.928,19.06-11.522,14.94L110.41,658.59l-14.289-1.541,6.2-88.961Z" fill="url(#linear-gradient-5)"/>
                <path id="Path_1931" data-name="Path 1931" d="M134.412,350.645,116.243,396.7,123.8,505.125l-21.473,62.962-6.2,88.961,7.53.812,4.738-89.292,16-48.468,4.21-2.144-.842-6.005h8l-5.894-6.434-4.21-109.374,18.918-44.717Z" fill="#333"/>
                <path id="Path_1932" data-name="Path 1932" d="M134.865,396.428l3.575,107.806,17.009,2.418,10.8-99Z" fill="#fff" opacity="0.3" style="mix-blend-mode: soft-light;isolation: isolate"/>
                <path id="Path_1933" data-name="Path 1933" d="M165.831,403.318l1.485-5.473-32.832-12.9.218,6.58Z" fill="#fff" opacity="0.3" style="mix-blend-mode: soft-light;isolation: isolate"/>
              </g>
              <g id="Group_2136" data-name="Group 2136">
                <path id="Path_1934" data-name="Path 1934" d="M93.655,680.845l15.451.846a4.891,4.891,0,0,0,5.292-5.017c-.388-6.692-.829-17.846-1.055-22.42a.718.718,0,0,0-1.286-.362l-.517.685c.935-1.238-6-3.718-6.77-3.8-3.042-.3-6.521,1.4-9.195,2.721a5.157,5.157,0,0,0-.553-1.911.7.7,0,0,0-1.318.281,37.847,37.847,0,0,1-3.737,16.652c-2.038,4.24-4.955,7.3-4.132,11.892Z" fill="#2e2933"/>
                <path id="Path_1935" data-name="Path 1935" d="M86.125,676.133a8.818,8.818,0,0,0-.29,4.283l7.82.429,15.451.846a4.891,4.891,0,0,0,5.292-5.017c-.005-.093-1.907,1.84-15.349,1.137C88.5,677.26,86.125,676.133,86.125,676.133Z" fill="#ffd561"/>
              </g>
              <g id="Group_2137" data-name="Group 2137">
                <path id="Path_1936" data-name="Path 1936" d="M111.54,654.577" fill="#2a6aa7"/>
                <path id="Path_1937" data-name="Path 1937" d="M95.575,653.5a5.157,5.157,0,0,0-.553-1.911.7.7,0,0,0-1.318.281c.006.766-.016,1.531-.057,2.3C94.142,654.7,95.166,655.5,95.575,653.5Z" fill="#ffd561"/>
                <path id="Path_1938" data-name="Path 1938" d="M113.343,654.254a.718.718,0,0,0-1.286-.362l-.517.685s.948,2.47,1.886,1.426C113.4,655.351,113.368,654.76,113.343,654.254Z" fill="#ffd561"/>
              </g>
            </g>
            <path id="Path_1939" data-name="Path 1939" d="M174.5,404.115,121.02,384.589l11.441-29,2.407-4.914,42.176,2.946-.679,5.663.643-.319.911-.452,15.5,8.6,3.294,24.578Z" fill="#333"/>
          </g>
          <g id="Group_2141" data-name="Group 2141">
            <path id="Path_1940" data-name="Path 1940" d="M127.295,249.9,152,234.562l22.749.251,17.2,11.568-.4,94.87,6.909,39.345-25.6,11.465-50.687-18.506,7.7-30.484Z" fill="url(#linear-gradient-6)"/>
            <path id="Path_1941" data-name="Path 1941" d="M183.363,343.961l10.268,30.054-17.281,6.011-34.061-10.769,7.013-25.8,25.546,4.759Z" fill="url(#linear-gradient-7)" style="mix-blend-mode: soft-light;isolation: isolate"/>
            <path id="Path_1942" data-name="Path 1942" d="M127.973,375.579l9.686-32.16,8.893-5.627-10.724-1.529L141.04,290.8l-10.059-42.473-3.686,1.572,2.574,93.175-7.7,30.484Z" fill="#f7e5b0" style="mix-blend-mode: multiply;isolation: isolate"/>
            <path id="Path_1943" data-name="Path 1943" d="M152.5,241.355l22.749.251,16.229,11.556.466-6.782-17.2-11.568L152,234.562l-24.7,15.334,1.155,6.511Z" fill="#fff" style="mix-blend-mode: soft-light;isolation: isolate"/>
            <g id="Group_2140" data-name="Group 2140">
              <path id="Path_1944" data-name="Path 1944" d="M186.587,285.02" fill="#ff5775"/>
            </g>
            <path id="Path_1945" data-name="Path 1945" d="M129.957,343.376l26.426-5.323,5.514-13.745.977,2.436c-.458-1.168-.809-2.051-.977-2.436l.1-.062-.1-.026a30.341,30.341,0,0,0,.062-7.913c.7-.82,2-.134,3.376,2.373a8.654,8.654,0,0,1,.469,3.242l.865-.528,3.3-2.014,6.146,3.726,3.687,6.176-4.221,9.257-6.121,4.613-8.4,2.964-35.692,15.542Z" fill="#f7e5b0" style="mix-blend-mode: multiply;isolation: isolate"/>
          </g>
          <g id="Group_2146" data-name="Group 2146">
            <g id="Group_2142" data-name="Group 2142">
              <path id="Path_1946" data-name="Path 1946" d="M174.992,242.1l-5.714,16.117-17.4-17.5.544-57.566,22.78.331Z" fill="url(#linear-gradient-8)"/>
              <path id="Path_1947" data-name="Path 1947" d="M164.063,183.318l5.579,74.4,5.35-15.618.216-58.622Z" fill="#fff" opacity="0.4" style="mix-blend-mode: soft-light;isolation: isolate"/>
              <path id="Path_1948" data-name="Path 1948" d="M154.312,222.436c-.781-1.1-1.5-2.236-2.192-3.39l.307-35.9,22.78.332-.176,52.765A32.879,32.879,0,0,1,154.312,222.436Z" fill="#ffb299" style="mix-blend-mode: multiply;isolation: isolate"/>
            </g>
            <g id="Group_2143" data-name="Group 2143">
              <path id="Path_1949" data-name="Path 1949" d="M169.283,258.228l5.709-16.127.218-11.063,12.124,14.53-9.815-1.347Z" fill="#2e2933"/>
              <path id="Path_1950" data-name="Path 1950" d="M175.21,231.039l12.124,14.53-9.457-3.881Z" fill="#fff" style="mix-blend-mode: soft-light;isolation: isolate"/>
            </g>
            <g id="Group_2145" data-name="Group 2145">
              <g id="Group_2144" data-name="Group 2144">
                <path id="Path_1951" data-name="Path 1951" d="M151.968,228.615l-4,4.726-5.351,13.57,12.1-2.593,14.584,13.91L154.031,237.91Z" fill="#2e2933"/>
              </g>
              <path id="Path_1952" data-name="Path 1952" d="M154.045,237.93h-6.083v4.4l5.457-1.958,14.137,15.666Z" fill="#fff" style="mix-blend-mode: soft-light;isolation: isolate"/>
            </g>
          </g>
          <g id="Group_2149" data-name="Group 2149">
            <path id="Path_1953" data-name="Path 1953" d="M246.468,311.724a30.358,30.358,0,0,1,5.835-5.345c.144-1.065-1.239-1.574-4.023-.918-1.529.361-5.074,4.063-5.074,4.063l-.055,9.649Z" fill="url(#linear-gradient-9)"/>
            <rect id="Rectangle_152" data-name="Rectangle 152" width="90.626" height="79.622" transform="translate(156.375 275.753)" fill="#994f3f"/>
            <rect id="Rectangle_153" data-name="Rectangle 153" width="61.928" height="79.622" transform="translate(185.073 275.753)" fill="url(#linear-gradient-10)"/>
            <rect id="Rectangle_154" data-name="Rectangle 154" width="4.631" height="79.622" transform="translate(213.721 275.753)" fill="url(#linear-gradient-11)"/>
            <g id="Group_2147" data-name="Group 2147">
              <rect id="Rectangle_155" data-name="Rectangle 155" width="18.18" height="9.859" transform="translate(225.784 279.659)" fill="#fff"/>
              <rect id="Rectangle_156" data-name="Rectangle 156" width="6.271" height="7.156" transform="translate(236.574 281.011)" fill="#ccc"/>
              <rect id="Rectangle_157" data-name="Rectangle 157" width="7.964" height="1.176" transform="translate(227.407 281.007)" fill="#ccc"/>
              <rect id="Rectangle_158" data-name="Rectangle 158" width="7.964" height="1.176" transform="translate(227.407 283.003)" fill="#ccc"/>
              <rect id="Rectangle_159" data-name="Rectangle 159" width="7.964" height="1.176" transform="translate(227.407 284.999)" fill="#ccc"/>
              <rect id="Rectangle_160" data-name="Rectangle 160" width="7.964" height="1.176" transform="translate(227.407 286.995)" fill="#ccc"/>
            </g>
            <g id="Group_2148" data-name="Group 2148">
              <path id="Path_1954" data-name="Path 1954" d="M251.938,326.59l-6.711,3.148-8.159-6.078.255-7.187,3.589-6.227,9.443.43C250.535,312.639,251.523,321.439,251.938,326.59Z" fill="url(#linear-gradient-12)"/>
              <path id="Path_1955" data-name="Path 1955" d="M244.771,310.422l-3.859-.176-3.59,6.227-.254,7.187,8.159,6.078C244.839,322.232,244.636,315.855,244.771,310.422Z" fill="url(#linear-gradient-13)"/>
              <path id="Path_1956" data-name="Path 1956" d="M244.946,311.533l-.1,2,5.062.284-.037-2.071Z" fill="#fff" opacity="0.4" style="mix-blend-mode: soft-light;isolation: isolate"/>
              <path id="Path_1957" data-name="Path 1957" d="M245.244,316.123l-.1,2.215,5.02-.035-.019-2.332Z" fill="#fff" opacity="0.4" style="mix-blend-mode: soft-light;isolation: isolate"/>
              <path id="Path_1958" data-name="Path 1958" d="M245.421,320.928l-.108,2.534,5.377-.583-.243-2.68Z" fill="#fff" opacity="0.4" style="mix-blend-mode: soft-light;isolation: isolate"/>
              <path id="Path_1959" data-name="Path 1959" d="M245.551,326.017l.186,2,5.458-1.951-.552-2.129Z" fill="#fff" opacity="0.4" style="mix-blend-mode: soft-light;isolation: isolate"/>
            </g>
          </g>
          <g id="Group_2153" data-name="Group 2153">
            <path id="Path_1960" data-name="Path 1960" d="M160.168,317.035a30.382,30.382,0,0,0-1.309-7.8c.542-.928,1.945-.477,3.736,1.753.983,1.226,1.5,6.325,1.5,6.325l-5.895,7.639Z" fill="url(#linear-gradient-14)"/>
            <g id="Group_2150" data-name="Group 2150">
              <path id="Path_1961" data-name="Path 1961" d="M124.905,337.766l13.768-56.3-14.09-3.381L105.846,354.5l8.147,3.091,47.067-20.269-4.433-8.129Z" fill="url(#linear-gradient-15)"/>
              <path id="Path_1962" data-name="Path 1962" d="M118.043,305.337l14,3.268,6.627-27.141-14.09-3.381Z" fill="#ffb299" style="mix-blend-mode: multiply;isolation: isolate"/>
              <path id="Path_1963" data-name="Path 1963" d="M156.627,329.191l-31.722,8.575,7.141-29.161-4.721-.757L119.6,337.99l-6.687,9.273,8.438-5.635,36.87-9.744Z" fill="#fff" opacity="0.8" style="mix-blend-mode: soft-light;isolation: isolate"/>
            </g>
            <g id="Group_2151" data-name="Group 2151">
              <path id="Path_1964" data-name="Path 1964" d="M122.16,251.922l-15.386,44.915,33.17,13.382,6.745-16.212L132.362,247.1Z" fill="url(#linear-gradient-16)"/>
              <path id="Path_1965" data-name="Path 1965" d="M129.063,296.744c-6.554-2.619-12.824-5.87-19.281-8.688l-3.009,8.781,33.17,13.382,3.648-8.768A139.793,139.793,0,0,1,129.063,296.744Z" fill="#2e2933"/>
              <path id="Path_1966" data-name="Path 1966" d="M126.278,259.215l7.877-6.417-1.794-5.7-10.2,4.823-15.386,44.915,9.451,3.751Z" fill="#fff" style="mix-blend-mode: soft-light;isolation: isolate"/>
            </g>
            <g id="Group_2152" data-name="Group 2152">
              <path id="Path_1967" data-name="Path 1967" d="M156.332,329.384l5.565-13.872,7.558,18.845-8.394,2.963Z" fill="url(#linear-gradient-17)"/>
              <path id="Path_1968" data-name="Path 1968" d="M169.455,334.356l6.121-4.613,4.221-9.258-3.687-6.175-6.146-3.726-8.067,4.927C162.684,317.318,167.336,329.643,169.455,334.356Z" fill="url(#linear-gradient-18)"/>
              <path id="Path_1969" data-name="Path 1969" d="M166.668,312.6l3.3-2.014,6.146,3.726,3.687,6.175-4.221,9.258C172.3,322.979,169.4,317.294,166.668,312.6Z" fill="url(#linear-gradient-19)"/>
              <path id="Path_1970" data-name="Path 1970" d="M156.332,329.384l1.556,2.521,4.771-6.887,6.8,9.338L161.9,315.511Z" fill="#fff" opacity="0.4" style="mix-blend-mode: soft-light;isolation: isolate"/>
              <path id="Path_1971" data-name="Path 1971" d="M167.05,313.655l1.055,1.7-4.3,2.688-.966-1.833Z" fill="#fff" opacity="0.4" style="mix-blend-mode: soft-light;isolation: isolate"/>
              <path id="Path_1972" data-name="Path 1972" d="M169,317.821l1.158,1.891-4.416,2.388-1.107-2.052Z" fill="#fff" opacity="0.4" style="mix-blend-mode: soft-light;isolation: isolate"/>
              <path id="Path_1973" data-name="Path 1973" d="M171.364,322.487l1.316,2.168-4.992,2.08-1.078-2.466Z" fill="#fff" opacity="0.4" style="mix-blend-mode: soft-light;isolation: isolate"/>
              <path id="Path_1974" data-name="Path 1974" d="M173.5,326.638l.8,1.839-4.52,3.24-.723-2.46Z" fill="#fff" opacity="0.4" style="mix-blend-mode: soft-light;isolation: isolate"/>
            </g>
          </g>
          <g id="Group_2168" data-name="Group 2168">
            <g id="Group_2157" data-name="Group 2157">
              <g id="Group_2154" data-name="Group 2154">
                <path id="Path_1975" data-name="Path 1975" d="M200.231,172.537s-1.051,32.88-7.182,42.841a41.762,41.762,0,0,1-8.966,10.242,12.634,12.634,0,0,1-11.785,2.307c-6.281-1.937-15.845-6.15-21.731-14.778-6.888-8.009-13.483-41.615-13.483-41.615l13.506-25.1,39.738,3.733Z" fill="url(#linear-gradient-20)"/>
              </g>
              <g id="Group_2155" data-name="Group 2155">
                <path id="Path_1976" data-name="Path 1976" d="M200.188,173.634l.114-1.569-.326-.1.255.576S200.218,172.939,200.188,173.634Z" fill="#fff" opacity="0.6" style="mix-blend-mode: soft-light;isolation: isolate"/>
                <path id="Path_1977" data-name="Path 1977" d="M187.443,176.239a62.64,62.64,0,0,0-8.2.19l3.616,7.932-1.256,6.388,2.338,8.1,3.316,4.88-5.026,3.037-.778,6.032-3.323,15.507a12.544,12.544,0,0,0,5.949-2.689,41.762,41.762,0,0,0,8.966-10.242c3.2-5.205,5.018-16.664,6.023-26.424l.8-10.931A45.484,45.484,0,0,0,187.443,176.239Z" fill="#fff" opacity="0.6" style="mix-blend-mode: soft-light;isolation: isolate"/>
              </g>
              <g id="Group_2156" data-name="Group 2156" style="mix-blend-mode: multiply;isolation: isolate">
                <path id="Path_1978" data-name="Path 1978" d="M161.65,180.744a59.267,59.267,0,0,1,25.793-4.505c4.257.185,8.571.471,12.514,1.809.205-3.359.274-5.511.274-5.511l-9.9-22.369-39.738-3.733-13.506,25.1s2.263,11.523,5.521,22.683C146.981,188.182,153.465,184.139,161.65,180.744Z" fill="#ffb299"/>
              </g>
            </g>
            <g id="Group_2161" data-name="Group 2161">
              <g id="Group_2158" data-name="Group 2158">
                <path id="Path_1979" data-name="Path 1979" d="M180.941,207.1s5.65-1.826,6.229-3.607c-3.583-3.151-5.491-13.268-5.491-13.268l.947-5.05" fill="none" stroke="#3f2d2b" stroke-linecap="round" stroke-linejoin="round" stroke-width="1.015"/>
              </g>
              <g id="Group_2160" data-name="Group 2160">
                <g id="Group_2159" data-name="Group 2159">
                  <path id="Path_1980" data-name="Path 1980" d="M186.1,212.06a43.272,43.272,0,0,1-14.746.275" fill="none" stroke="#3f2d2b" stroke-linecap="round" stroke-linejoin="round" stroke-width="1.015"/>
                </g>
              </g>
              <path id="Path_1981" data-name="Path 1981" d="M162.477,182.387c2.025-1.74,6.481-2.393,8.937-1.912" fill="none" stroke="#3f2d2b" stroke-linecap="round" stroke-linejoin="round" stroke-width="1.966"/>
              <path id="Path_1982" data-name="Path 1982" d="M189.919,180.739a10.276,10.276,0,0,1,7.3.248" fill="none" stroke="#3f2d2b" stroke-linecap="round" stroke-linejoin="round" stroke-width="1.966"/>
              <path id="Path_1983" data-name="Path 1983" d="M168.315,193.079h0a2.473,2.473,0,0,0,2.473-2.473v-2a2.473,2.473,0,0,0-2.473-2.473h0a2.473,2.473,0,0,0-2.473,2.473v2A2.473,2.473,0,0,0,168.315,193.079Z" fill="#3f2d2b"/>
              <path id="Path_1984" data-name="Path 1984" d="M192.357,192.8h0a2.473,2.473,0,0,0,2.473-2.473v-2a2.473,2.473,0,0,0-2.473-2.473h0a2.473,2.473,0,0,0-2.473,2.473v2A2.473,2.473,0,0,0,192.357,192.8Z" fill="#3f2d2b"/>
              <ellipse id="Ellipse_74" data-name="Ellipse 74" cx="6.944" cy="5.794" rx="6.944" ry="5.794" transform="translate(160.019 195.41)" fill="#ff8585"/>
              <path id="Path_1985" data-name="Path 1985" d="M195.521,195.41a8.1,8.1,0,0,1,2.72.464,108.51,108.51,0,0,1-2.057,11.069c-.222.018-.436.055-.663.055-3.836,0-6.945-2.594-6.945-5.794S191.685,195.41,195.521,195.41Z" fill="#ff8585"/>
            </g>
            <g id="Group_2164" data-name="Group 2164">
              <g id="Group_2163" data-name="Group 2163">
                <g id="Group_2162" data-name="Group 2162">
                  <path id="Path_1986" data-name="Path 1986" d="M139.315,191.354l-5.844-20.469,9.573-25.327,26.6-11.936,20.235,7.228,11.283,19.459,2.322,3.653-2.523,10.048L178.334,167l-11.015-8.628-2.731,12.992-9.484,7.939-4.168,19.027Z" fill="url(#linear-gradient-21)"/>
                </g>
              </g>
              <path id="Path_1987" data-name="Path 1987" d="M201.164,160.309,189.881,140.85l-20.235-7.228-26.6,11.936-7.713,20.406,9.954,2.685,7.7-18.6,14.194-4.815,11.589,14.587,16.607,4.94,7.58-.935Z" fill="#fff" opacity="0.3" style="mix-blend-mode: overlay;isolation: isolate"/>
            </g>
            <g id="Group_2166" data-name="Group 2166">
              <g id="Group_2165" data-name="Group 2165">
                <path id="Path_1988" data-name="Path 1988" d="M150.377,208.537,146.158,193.5s-2.485-7.206-7.984-8.267c-4.089-.79-6.263,3.631-5.614,7.029a18.066,18.066,0,0,0,3.973,7.656C142.972,207.708,150.377,208.537,150.377,208.537Z" fill="url(#linear-gradient-22)"/>
                <path id="Path_1989" data-name="Path 1989" d="M136.728,195.309A5.146,5.146,0,0,1,135,192.4a3.482,3.482,0,0,1,.162-2.087,2.139,2.139,0,0,1,1.584-1.279c1.482-.207,3.181,1.928,3.877,3a52.809,52.809,0,0,1,3.784,8c-.526-.377-1.219-.765-1.775-.435a1.391,1.391,0,0,0-.4,1.576,3.548,3.548,0,0,0,3.736,2.516" fill="none" stroke="#3f2d2b" stroke-linecap="round" stroke-linejoin="round" stroke-width="0.983"/>
              </g>
            </g>
            <g id="Group_2167" data-name="Group 2167">
              <path id="Path_1990" data-name="Path 1990" d="M204.927,173.907c-1.963-25.516-14.541-42.134-37.456-41.774-21,.331-40.262,17-33.348,44.847a178.889,178.889,0,0,0,21.665.554c9.465-6.6,16.859-10.24,27.359-10.737C194.533,166.258,204.939,174.061,204.927,173.907Z" fill="#2e2933"/>
              <path id="Path_1991" data-name="Path 1991" d="M190.816,168.151a12.127,12.127,0,1,0-19.049,0Z" fill="#ffedb5"/>
              <path id="Path_1992" data-name="Path 1992" d="M150.006,156.83c15.093,5.386,32.1,4.153,47.085-.957,1.211-.413,2.414-.865,3.612-1.335-5.7-14.2-16.813-22.663-33.232-22.4-12.712.2-24.776,6.4-30.794,17.427A48.739,48.739,0,0,0,150.006,156.83Z" fill="#fff" style="mix-blend-mode: soft-light;isolation: isolate"/>
              <path id="Path_1993" data-name="Path 1993" d="M155.936,177.249a44.143,44.143,0,0,1,53.388-1.853" fill="none" stroke="#ffcd38" stroke-miterlimit="10" stroke-width="2.004"/>
            </g>
          </g>
        </g>
        <path id="Path_1994" data-name="Path 1994" d="M252.3,306.379c.144-1.065-1.239-1.574-4.023-.918a4.257,4.257,0,0,0-1.279.677V275.753h-38.84l-6.573-22.314-3.777-2.74L109.69,338.82,105.846,354.5l8.147,3.091,13.7-5.9-5.525,21.866h0l2.8,1.023-3.949,10.011h0L116.243,396.7,123.8,505.125l-21.474,62.962L96.4,653.1c-.279.136-.558.272-.822.4h0a5.157,5.157,0,0,0-.553-1.911.684.684,0,0,0-.562-.378.721.721,0,0,0-.6.227.627.627,0,0,0-.158.432c.006.766-.016,1.531-.057,2.3a37.905,37.905,0,0,1-3.68,14.356c-1.682,3.5-3.957,6.2-4.24,9.613,0,.045,0,.091-.007.136-.019.278-.023.561-.014.849,0,.083,0,.167.01.251a9.01,9.01,0,0,0,.119,1.043l7.82.429,15.451.846A4.925,4.925,0,0,0,114.4,677.2a4.4,4.4,0,0,0,0-.526c-.366-6.317-.779-16.6-1.014-21.584-.015-.3-.028-.579-.041-.836a.718.718,0,0,0-1.286-.362l-.517.685a.426.426,0,0,0,.03-.444l27.941-107.389,11.522-14.94,6.928-19.06,6.544-54.569,16.438,61.99,2.553,46.259,18.457,85.059c-.373-.363-.6-.615-.6-.615a6.969,6.969,0,0,0-1.477,2.245,7.484,7.484,0,0,0-.419,4.57c.553,2.646-.623,7.664-1.588,11.064-.587,2.061-1.092,3.526-1.092,3.526s-.251,1.688,5.663,2.173l6.836-.307c2.274-.47,3.935-1.221,6.269-1.639,3.545-.637,5.254.779,5.6,1.107.046.043.066.066.066.066l29.041-1.3c.683-1.095-.129-3.526-.9-5.307a4.164,4.164,0,0,0-2.832-2.409c-3.12-.771-9.228-1.307-15.017-6.186-3.258-2.738-15.58-9.91-15.58-9.91l-.065-.012a1.273,1.273,0,0,0-.454.173l-5.8-107.4,4.31-21.28L205.651,458.4l-8.941-66.709-1.3-9.729,3.052-1.366-4.429-25.222H247V328.906l4.937-2.316c-.415-5.151-1.4-13.952-1.583-15.914l-2.845-.129A29.7,29.7,0,0,1,252.3,306.379ZM124.9,337.766l4.329-17.677.453,16.384Z" fill="url(#linear-gradient-23)" style="mix-blend-mode: multiply;isolation: isolate"/>
      </g>
    </g>
  </g>
</svg>
