<svg xmlns="http://www.w3.org/2000/svg" xmlns:xlink="http://www.w3.org/1999/xlink" width="500" height="265" viewBox="0 0 500 265">
  <defs>
    <linearGradient id="linear-gradient" x1="0.486" y1="-3.388" x2="0.502" y2="1.262" gradientUnits="objectBoundingBox">
      <stop offset="0" stop-color="#fff"/>
      <stop offset="1" stop-color="#c1c1c1"/>
    </linearGradient>
    <linearGradient id="linear-gradient-2" x1="0.493" y1="-1.669" x2="0.512" y2="3.721" xlink:href="#linear-gradient"/>
    <linearGradient id="linear-gradient-3" x1="0.498" y1="-0.398" x2="0.502" y2="0.898" xlink:href="#linear-gradient"/>
    <linearGradient id="linear-gradient-4" x1="0.496" y1="-0.302" x2="0.501" y2="0.922" xlink:href="#linear-gradient"/>
    <linearGradient id="linear-gradient-5" x1="0.484" y1="-4.3" x2="0.525" y2="7.808" xlink:href="#linear-gradient"/>
    <linearGradient id="linear-gradient-6" x1="6.869" y1="-3.12" x2="7.916" y2="-6.493" gradientUnits="objectBoundingBox">
      <stop offset="0" stop-color="#fff"/>
      <stop offset="1" stop-color="#00227a"/>
    </linearGradient>
    <linearGradient id="linear-gradient-7" x1="11.594" y1="-2.356" x2="14.487" y2="-6.488" xlink:href="#linear-gradient-6"/>
    <linearGradient id="linear-gradient-8" x1="8.913" y1="-3.01" x2="13.393" y2="-4.799" xlink:href="#linear-gradient-6"/>
    <linearGradient id="linear-gradient-9" x1="4.957" y1="-4.034" x2="6.079" y2="-12.168" xlink:href="#linear-gradient-6"/>
    <linearGradient id="linear-gradient-10" x1="12.544" y1="-4.342" x2="15.066" y2="-6.996" xlink:href="#linear-gradient-6"/>
    <linearGradient id="linear-gradient-11" x1="13.048" y1="-9.601" x2="13.048" y2="-4.898" xlink:href="#linear-gradient-6"/>
    <linearGradient id="linear-gradient-12" x1="12.894" y1="-33.728" x2="13.169" y2="-38.821" gradientUnits="objectBoundingBox">
      <stop offset="0" stop-color="#ff1b31"/>
      <stop offset="1" stop-color="#ffa7a1"/>
    </linearGradient>
    <linearGradient id="linear-gradient-13" x1="0.25" y1="0.301" x2="0.437" y2="1.241" gradientUnits="objectBoundingBox">
      <stop offset="0.006" stop-color="#98ed54"/>
      <stop offset="1" stop-color="#2c8100"/>
    </linearGradient>
    <linearGradient id="linear-gradient-14" x1="-2.837" y1="0.171" x2="-2.476" y2="3.245" xlink:href="#linear-gradient-13"/>
    <linearGradient id="linear-gradient-15" x1="-2.97" y1="-0.808" x2="-2.615" y2="2.258" xlink:href="#linear-gradient-13"/>
    <linearGradient id="linear-gradient-16" x1="-0.028" y1="-0.021" x2="1.512" y2="3.562" gradientUnits="objectBoundingBox">
      <stop offset="0" stop-color="#00033b" stop-opacity="0"/>
      <stop offset="1" stop-color="#00023a"/>
    </linearGradient>
    <linearGradient id="linear-gradient-17" x1="0.603" y1="0.177" x2="0.337" y2="1.062" gradientUnits="objectBoundingBox">
      <stop offset="0" stop-color="#ff9b78"/>
      <stop offset="1" stop-color="#ff703d"/>
    </linearGradient>
    <linearGradient id="linear-gradient-18" x1="0.654" y1="-1.281" x2="0.445" y2="1.139" xlink:href="#linear-gradient-17"/>
    <linearGradient id="linear-gradient-19" x1="1.383" y1="-7.673" x2="0.372" y2="1.686" gradientUnits="objectBoundingBox">
      <stop offset="0" stop-color="#ff9b78"/>
      <stop offset="1" stop-color="#c44713"/>
    </linearGradient>
    <linearGradient id="linear-gradient-20" x1="-0.073" y1="1.297" x2="0.869" y2="0.002" gradientUnits="objectBoundingBox">
      <stop offset="0" stop-color="#90003c"/>
      <stop offset="1" stop-color="#ff3b40"/>
    </linearGradient>
    <linearGradient id="linear-gradient-21" x1="0.595" y1="0.154" x2="0.242" y2="1.405" xlink:href="#linear-gradient-16"/>
    <clipPath id="clip-path">
      <circle id="Ellipse_4" data-name="Ellipse 4" cx="95.089" cy="95.089" r="95.089" transform="translate(0 134.476) rotate(-45)" fill="#141751"/>
    </clipPath>
    <linearGradient id="linear-gradient-22" x1="0.495" y1="-0.003" x2="0.505" y2="1.003" xlink:href="#linear-gradient-6"/>
    <linearGradient id="linear-gradient-23" x1="0.841" y1="-0.276" x2="-0.465" y2="2.695" xlink:href="#linear-gradient-6"/>
    <linearGradient id="linear-gradient-24" x1="0.639" y1="0.003" x2="0.051" y2="2.105" xlink:href="#linear-gradient-6"/>
    <linearGradient id="linear-gradient-25" x1="1.317" y1="-1.712" x2="0.559" y2="0.339" xlink:href="#linear-gradient-6"/>
    <linearGradient id="linear-gradient-26" x1="0.567" y1="-0.294" x2="0.142" y2="4.736" xlink:href="#linear-gradient-6"/>
    <linearGradient id="linear-gradient-27" x1="0.622" y1="0.147" x2="-0.258" y2="2.701" xlink:href="#linear-gradient-6"/>
    <linearGradient id="linear-gradient-30" x1="0.498" y1="0.407" x2="0.564" y2="4.26" xlink:href="#linear-gradient-6"/>
    <linearGradient id="linear-gradient-34" x1="0.703" y1="-0.51" x2="0.148" y2="2.25" xlink:href="#linear-gradient-6"/>
    <linearGradient id="linear-gradient-35" x1="0.507" y1="0.478" x2="-0.377" y2="3.163" xlink:href="#linear-gradient-6"/>
    <linearGradient id="linear-gradient-44" x1="0.392" y1="0.758" x2="-0.229" y2="2.25" xlink:href="#linear-gradient-6"/>
    <linearGradient id="linear-gradient-46" x1="0.675" y1="-0.007" x2="0.013" y2="1.909" xlink:href="#linear-gradient-6"/>
    <linearGradient id="linear-gradient-49" x1="0.798" y1="-0.067" x2="0.317" y2="0.848" xlink:href="#linear-gradient-16"/>
    <linearGradient id="linear-gradient-50" x1="-1.142" y1="1.09" x2="-1.548" y2="1.992" gradientUnits="objectBoundingBox">
      <stop offset="0" stop-color="#ac1b4a"/>
      <stop offset="1" stop-color="#ff4568"/>
    </linearGradient>
    <linearGradient id="linear-gradient-51" x1="-2.623" y1="1.81" x2="-5.947" y2="2.849" gradientUnits="objectBoundingBox">
      <stop offset="0" stop-color="#6f1b4a"/>
      <stop offset="1" stop-color="#ff4568"/>
    </linearGradient>
    <linearGradient id="linear-gradient-52" x1="-2.732" y1="1.311" x2="-3.879" y2="1.598" xlink:href="#linear-gradient-51"/>
    <linearGradient id="linear-gradient-53" x1="-1.432" y1="0.599" x2="-2.053" y2="1.452" xlink:href="#linear-gradient-50"/>
    <linearGradient id="linear-gradient-54" x1="-2.87" y1="1.905" x2="-6.499" y2="-0.511" xlink:href="#linear-gradient-51"/>
    <linearGradient id="linear-gradient-55" x1="-3.767" y1="7.128" x2="-3.269" y2="5.246" gradientUnits="objectBoundingBox">
      <stop offset="0" stop-color="#754d98"/>
      <stop offset="1" stop-color="#2a224f"/>
    </linearGradient>
    <clipPath id="clip-path-2">
      <path id="Path_60" data-name="Path 60" d="M357.586,399.527c-3.22,8.486-8.2,15.187-14.13,19.628l-.05-.064c-.3.252-.6.5-.892.739-7.977,5.567-17.534,7.139-26.784,3.629s-15.358-11.025-17.635-20.483c-.056-.38-.117-.755-.173-1.143l-.08.014c-1.49-7.256-.774-15.574,2.446-24.061,7.651-20.164,25.252-30.232,41.853-23.934S365.237,379.363,357.586,399.527Z" transform="translate(-297.099 -351.988)" fill="none"/>
    </clipPath>
    <linearGradient id="linear-gradient-56" x1="0.034" y1="0.899" x2="0.412" y2="-0.108" gradientUnits="objectBoundingBox">
      <stop offset="0" stop-color="#1b52ca"/>
      <stop offset="1" stop-color="#0bc7ff"/>
    </linearGradient>
    <linearGradient id="linear-gradient-57" x1="1.16" y1="0.063" x2="0.991" y2="1.254" xlink:href="#linear-gradient-55"/>
    <linearGradient id="linear-gradient-58" x1="-1.657" y1="4.521" x2="-1.413" y2="2.738" xlink:href="#linear-gradient-56"/>
    <linearGradient id="linear-gradient-59" x1="-0.853" y1="3.504" x2="-0.638" y2="0.492" xlink:href="#linear-gradient-56"/>
    <linearGradient id="linear-gradient-60" x1="1.159" y1="1.203" x2="15.916" y2="2.471" gradientUnits="objectBoundingBox">
      <stop offset="0" stop-color="#ff6b00"/>
      <stop offset="1" stop-color="#ff9700"/>
    </linearGradient>
    <linearGradient id="linear-gradient-61" x1="1.217" y1="1.962" x2="1.212" y2="0.882" xlink:href="#linear-gradient-60"/>
    <linearGradient id="linear-gradient-62" x1="3.222" y1="11.699" x2="3.539" y2="8.372" gradientUnits="objectBoundingBox">
      <stop offset="0" stop-color="#ff6b00"/>
      <stop offset="1" stop-color="#ffc93b"/>
    </linearGradient>
    <linearGradient id="linear-gradient-63" x1="0.402" y1="0.008" x2="0.589" y2="0.947" xlink:href="#linear-gradient-13"/>
    <linearGradient id="linear-gradient-64" x1="-0.496" y1="-2.016" x2="-0.163" y2="1.799" xlink:href="#linear-gradient-13"/>
    <linearGradient id="linear-gradient-65" x1="-0.569" y1="-3.517" x2="-0.243" y2="0.299" xlink:href="#linear-gradient-13"/>
    <linearGradient id="linear-gradient-66" x1="0.093" y1="-0.367" x2="1.72" y2="3.053" xlink:href="#linear-gradient-16"/>
    <linearGradient id="linear-gradient-67" x1="0.343" y1="0.095" x2="0.587" y2="0.725" xlink:href="#linear-gradient-55"/>
    <linearGradient id="linear-gradient-68" x1="-0.119" y1="2.195" x2="1.295" y2="4.954" xlink:href="#linear-gradient-6"/>
    <linearGradient id="linear-gradient-69" x1="-0.123" y1="-1.571" x2="0.603" y2="0.629" xlink:href="#linear-gradient-55"/>
    <linearGradient id="linear-gradient-70" x1="0.055" y1="-2.754" x2="0.693" y2="2.005" xlink:href="#linear-gradient-55"/>
    <linearGradient id="linear-gradient-71" x1="0.036" y1="-0.396" x2="0.888" y2="1.476" xlink:href="#linear-gradient-55"/>
    <linearGradient id="linear-gradient-72" x1="0.202" y1="-0.134" x2="2.045" y2="1.513" xlink:href="#linear-gradient-55"/>
    <linearGradient id="linear-gradient-73" x1="0.19" y1="-0.258" x2="0.915" y2="1.942" xlink:href="#linear-gradient-55"/>
    <linearGradient id="linear-gradient-74" x1="0.125" y1="-2.365" x2="0.763" y2="2.394" xlink:href="#linear-gradient-55"/>
    <linearGradient id="linear-gradient-75" x1="-0.132" y1="-1.011" x2="0.72" y2="0.861" xlink:href="#linear-gradient-55"/>
    <linearGradient id="linear-gradient-76" x1="-1.572" y1="-0.984" x2="0.271" y2="0.664" xlink:href="#linear-gradient-55"/>
    <linearGradient id="linear-gradient-77" x1="-0.499" y1="2.293" x2="1.346" y2="-1.018" xlink:href="#linear-gradient-16"/>
    <linearGradient id="linear-gradient-78" x1="0.941" y1="1.868" x2="0.048" y2="-0.566" xlink:href="#linear-gradient-62"/>
    <linearGradient id="linear-gradient-79" x1="0.54" y1="0.904" x2="0.863" y2="4.404" xlink:href="#linear-gradient-62"/>
    <linearGradient id="linear-gradient-81" x1="5.581" y1="-4.64" x2="4.629" y2="-7.74" xlink:href="#linear-gradient-62"/>
    <linearGradient id="linear-gradient-82" x1="5.154" y1="-8.919" x2="5.498" y2="-5.839" xlink:href="#linear-gradient-62"/>
    <linearGradient id="linear-gradient-83" x1="0.281" y1="0.013" x2="0.625" y2="0.779" gradientUnits="objectBoundingBox">
      <stop offset="0.006" stop-color="orange"/>
      <stop offset="1" stop-color="#9d3300"/>
    </linearGradient>
    <linearGradient id="linear-gradient-84" x1="0.15" y1="-0.387" x2="1.477" y2="2.633" xlink:href="#linear-gradient-16"/>
    <clipPath id="clip-Artboard_1">
      <rect width="500" height="265"/>
    </clipPath>
  </defs>
  <g id="Artboard_1" data-name="Artboard 1" clip-path="url(#clip-Artboard_1)">
    <g id="Group_64" data-name="Group 64" transform="translate(90.332 -254)">
      <g id="Group_1" data-name="Group 1" transform="translate(-57.768 267.688)">
        <path id="Path_1" data-name="Path 1" d="M247.3,469.471c-.778-12.569-2.119-17.387-8.8-18.895a30.787,30.787,0,0,0-2.512-4.43,25.012,25.012,0,0,0-1.529-2h0c-7.424-8.753-18.134-8.219-27.745-3.346-12.87,6.535-15.819,29.644-9.279,33.908,3.631,2.364,7.5,2.848,10.59,3.619,2.471.62,4.435,1.426,5.363,3.535a2.422,2.422,0,0,0,1.351,1.326,3.107,3.107,0,0,0-.653,1.365c-.894,4.664,3.72,12.344,9.483,11.564s26.718-9.758,26.418-18C249.85,474.372,249.259,471.036,247.3,469.471Z" transform="translate(-4.14 -305.748)" fill="url(#linear-gradient)"/>
        <path id="Path_2" data-name="Path 2" d="M181.634,307.637a1.181,1.181,0,0,0,.168,1.2l.832,1.027a1.181,1.181,0,0,0,1.132.415c8.539,14.026,3.206,29.962,7.1,34.649,1.921,2.315,5.581-.356,6.378-6.724.618,1.866,1.327,3.211,2.331,3.827,4.263,2.618,5.825-4.139,2.093-13.14,3.722,4.457,7.415,7.383,9.979,5.854l.316-.255c2.028-2.191-.067-6.411-3.653-10.978,8.03,5.521,14.964,5.4,13.288.682-.394-1.109-1.562-2.083-3.259-3.075,6.395.544,9.768-2.482,7.9-4.842-3.777-4.778-20.469-2.88-32.416-14.146a1.18,1.18,0,0,0-.174-1.186l-.831-1.027a1.178,1.178,0,0,0-1.138-.413l-1.738-2.146a6.461,6.461,0,0,0-10.042,8.133Z" transform="translate(-1.101 -278.049)" fill="url(#linear-gradient-2)"/>
        <path id="Path_3" data-name="Path 3" d="M418.308,396.644c.6-.5,1.206-1,1.8-1.523a58.026,58.026,0,0,0-74.582-88.86l-.5-2.125-11.247-8.793,2.076,8.134-9.851,1.212,13.512,6.111,1.229-.291a57.684,57.684,0,0,0-12.9,19.356l-7.713-.228,6.032,4.946q-.173.561-.333,1.124l-6.426,6.065,5.247-1.115q-.483,2.508-.747,5.049a29.946,29.946,0,0,0-34.8-2.956,39.05,39.05,0,0,0-12.224,11.482q-.453-.979-.95-1.949c-5.059-9.832-12.8-17.227-21.8-20.823-9.625-3.846-19.893-3.213-29.7,1.831s-16.289,13.031-18.756,23.1c-2.306,9.413-.79,20.011,4.268,29.842s12.8,17.228,21.8,20.824a34.055,34.055,0,0,0,23.129.868,3.308,3.308,0,0,0,3.894.645l1.4-.722,15.344,29.825-2.738,7.216a3.645,3.645,0,0,0-3.591,2.232l-15.5,37.122a3.643,3.643,0,0,0,2.069,4.81l5.077,1.926a3.643,3.643,0,0,0,4.739-2.226L278.6,450.688c.02-.057.035-.115.052-.173.02.11.039.221.06.33.05.234.1.47.151.7a24.169,24.169,0,0,0,6.763,12.046c.195.188.394.373.6.556a24.081,24.081,0,0,0,4.6,3.27l1.574,3.059,2.5-1.288a24.084,24.084,0,0,0,3.056.788l.109.021.043.008a24.205,24.205,0,0,0,14.25-1.751l.218-.1c.114-.054.229-.106.343-.162.184-.087.373-.181.555-.276.351-.18.7-.366,1.036-.563.178-.1.35-.214.526-.321s.345-.2.515-.314q.923-.6,1.794-1.279a62.793,62.793,0,0,0,26.436,31c.907.535,1.832,1.051,2.768,1.542a62.608,62.608,0,0,0,84.751-26.946q.435-.844.839-1.7a62.088,62.088,0,0,0,5.827-22.016q.076-1,.118-2.012.059-1.366.061-2.75a62.5,62.5,0,0,0-19.843-45.706Zm-89.357-20.593c.147.317.294.632.447.946q-.291,1.823-.761,3.68l-1.523-.577,1.575-4.149Zm-3.615,8.735,1.574-4.149,1.585.6a46.136,46.136,0,0,1-1.446,4.5c.034-.089.063-.18.1-.269Zm-5.7,13.582c-.063.072-.122.149-.185.221-.094.106-.19.208-.284.313l.249-.278-4.1-1.558,1.575-4.149,4.149,1.575-1.528,4.026C319.555,398.469,319.6,398.417,319.641,398.368Zm-7.975,6.7q-.709.418-1.434.789l-3.157-1.2,1.574-4.149,4.149,1.575Zm.5-.3c-.038.023-.075.048-.114.07-.019.012-.039.023-.057.034Zm-32.956-5.322a25.024,25.024,0,0,1-1.525-2.113l1.065-2.808L282.9,396.1l-1.574,4.149Zm1.911,1.34-.212.557q-.48-.483-.931-.991Zm26.708-28.005-4.149-1.575,1.575-4.149,4.149,1.575Zm2.111-3.945,4.149,1.574-1.574,4.149-4.149-1.574Zm-2.316,4.482-1.574,4.149-4.149-1.575,1.574-4.149Zm-1.777,4.686-1.575,4.149-4.149-1.574,1.575-4.149Zm-4.482-2.316-4.149-1.574,1.575-4.149,4.149,1.574Zm-.2.537-1.575,4.149-4.149-1.575,1.574-4.149Zm-1.778,4.687-1.575,4.149-4.149-1.575,1.575-4.149Zm-6.26,2.37-4.149-1.574,1.575-4.149,4.149,1.574Zm.333.742,4.149,1.574-1.574,4.149-4.149-1.574Zm4.686,1.778,4.149,1.574-1.575,4.149-4.149-1.575Zm.2-.537,1.575-4.149,4.149,1.574-1.574,4.149Zm6.26-2.371,4.149,1.575-1.574,4.149-4.149-1.574Zm.2-.537,1.575-4.149,4.149,1.574-1.574,4.149Zm1.778-4.686,1.574-4.149,4.149,1.574-1.575,4.149Zm6.26-2.371L317,376.877l-1.575,4.149-4.149-1.574Zm.2-.537,1.574-4.149,4.149,1.575-1.574,4.149Zm1.24-4.89-4.149-1.574,1.575-4.149,4.149,1.575Zm-4.686-1.777-4.149-1.575,1.574-4.149,4.149,1.574Zm-4.686-1.778-4.149-1.575,1.575-4.149,4.149,1.575Zm-.2.537-1.575,4.149L299,369.432l1.574-4.149Zm-6.26,2.371-4.149-1.575,1.574-4.149,4.149,1.574Zm-.2.537-1.575,4.149-4.149-1.575,1.575-4.149Zm-1.778,4.686-1.574,4.149-4.149-1.574,1.574-4.149Zm-6.26,2.37-4.149-1.574,1.575-4.149,4.149,1.574Zm-.2.538-1.574,4.149-4.149-1.575,1.574-4.149Zm-1.24,4.89,4.149,1.574-1.574,4.149L287.2,386.4Zm2.908,6.464,4.149,1.574-1.575,4.149-4.149-1.574Zm4.686,1.778,4.149,1.575-1.574,4.149-4.149-1.574Zm4.686,1.778,4.149,1.574-1.574,4.149-4.149-1.575Zm.2-.537,1.575-4.149,4.149,1.575-1.575,4.149Zm6.26-2.371,4.149,1.575-1.574,4.149-4.149-1.575Zm.2-.537,1.575-4.149,4.149,1.574-1.575,4.149Zm1.778-4.686,1.574-4.149,4.149,1.575-1.574,4.149Zm6.26-2.371,4.149,1.575-1.575,4.149-4.149-1.575Zm.2-.537,1.575-4.149,4.149,1.574-1.574,4.149Zm1.778-4.686,1.574-4.149,4.149,1.574-1.575,4.149Zm1.24-4.89-4.149-1.575,1.575-4.149,4.149,1.574Zm-2.907-6.464-4.149-1.575,1.574-4.149,4.149,1.575Zm-2.908-6.464-4.149-1.574L310.592,353l4.149,1.575Zm-.2.537-1.574,4.149-4.149-1.574,1.575-4.149Zm-6.26,2.371-4.149-1.575,1.574-4.149,4.149,1.574Zm-4.686-1.778-4.149-1.574,1.574-4.149,4.149,1.574Zm-.2.537-1.575,4.149-4.149-1.574,1.575-4.149Zm-6.26,2.371L291.4,361.19l1.574-4.149,4.149,1.575Zm-.2.537-1.574,4.149-4.149-1.574,1.575-4.149Zm-1.778,4.686L292,372.136l-4.149-1.574,1.574-4.149Zm-6.26,2.371-4.149-1.575,1.574-4.149,4.149,1.574Zm-.2.537-1.575,4.149-4.149-1.574,1.575-4.149Zm-5.867,1.335q-.045-1.819-.256-3.658l1.438.545Zm.006,1.8,4.083,1.55-1.574,4.149-2.88-1.093A38.08,38.08,0,0,0,281.246,374.032Zm2.843,6.439,4.149,1.575-1.575,4.149-4.149-1.575ZM287,386.935l4.149,1.575-1.575,4.149-4.149-1.575Zm2.371,6.26-1.574,4.149-4.149-1.575,1.575-4.149Zm-1.777,4.686-1.575,4.149-4.149-1.574,1.574-4.149Zm.537.2,4.149,1.574-1.575,4.149-4.149-1.575Zm.2-.537L289.9,393.4l4.149,1.574-1.574,4.149Zm6.26-2.37,4.149,1.574-1.574,4.149-4.149-1.575Zm4.686,1.778,4.149,1.575-1.575,4.149L297.7,401.1Zm4.687,1.778,4.149,1.574-1.574,4.149-4.149-1.574Zm.2-.537,1.574-4.149,4.149,1.575-1.575,4.149Zm6.26-2.371,4.149,1.574L313,401.548l-4.149-1.575Zm.2-.537,1.574-4.149,4.149,1.574-1.575,4.149Zm1.777-4.686,1.575-4.149,4.149,1.575-1.574,4.149Zm6.26-2.371,4.149,1.574-1.574,4.149-4.149-1.575Zm.2-.537,1.575-4.149,4.149,1.574-1.575,4.149Zm1.778-4.686,1.574-4.149,4.149,1.575-1.574,4.149Zm1.778-4.687L324,374.173l4.149,1.575-1.575,4.149Zm1.241-4.89-4.149-1.574,1.574-4.149,4.149,1.575Zm-2.908-6.464-4.149-1.574,1.574-4.149,4.149,1.574Zm-2.908-6.463L313.7,358.93l1.575-4.149,4.149,1.574Zm-2.37-6.26,1.574-4.149,4.149,1.574-1.574,4.149Zm-.537-.2-4.149-1.575,1.575-4.149,4.149,1.575Zm-4.687-1.778-4.149-1.574,1.575-4.149,4.149,1.575Zm-.2.537-1.574,4.149-4.149-1.574,1.575-4.149Zm-6.26,2.371-4.149-1.575,1.575-4.149,4.149,1.575Zm-4.686-1.778-4.149-1.574,1.575-4.149,4.149,1.574Zm-.2.537-1.574,4.149-4.149-1.575,1.574-4.149Zm-6.26,2.371-4.149-1.574,1.575-4.149,4.149,1.575Zm-.2.537-1.574,4.149-4.149-1.574,1.574-4.149Zm-1.778,4.686-1.575,4.149L284.94,364.1l1.575-4.149Zm-6.26,2.371-4.149-1.575,1.574-4.149,4.149,1.575Zm-.2.537-1.574,4.149-1.72-.652a44.4,44.4,0,0,0-.92-4.9l.065-.172Zm-4,17.695q.353-1.436.583-2.908l2.766,1.049-1.575,4.149-2.17-.823C279.948,383.109,280.082,382.621,280.2,382.126Zm2.108,3.032,4.149,1.574-1.574,4.149-4.149-1.574Zm2.371,6.26-1.575,4.149-4.149-1.574,1.575-4.149Zm-3.019,9.576,4.149,1.574-.793,2.092a24.365,24.365,0,0,1-3.656-2.872Zm4.686,1.778,4.149,1.575-.987,2.6a25.688,25.688,0,0,1-4-1.973Zm4.686,1.778,4.149,1.574-.835,2.2a25.632,25.632,0,0,1-4.3-1.174Zm.2-.537,1.575-4.149,4.149,1.575-1.575,4.149Zm6.26-2.371,4.149,1.575-1.574,4.149-4.149-1.575Zm2.908,6.464,1.141.433q-.674.08-1.352.123Zm.2-.537,1.574-4.149,4.149,1.574-1.065,2.809a25.237,25.237,0,0,1-2.543.568Zm6.26-2.371,2.661,1.01c-.7.333-1.4.638-2.121.9-.48.18-.965.34-1.452.49Zm6.464-2.907,1.563.593c-.144.112-.286.23-.432.338l-.044-.056c-.27.224-.53.442-.794.658-.383.267-.772.521-1.165.767Zm.2-.537,1.575-4.149,3.895,1.478a33.937,33.937,0,0,1-2.457,2.434q-.555.493-1.124.953Zm8.039-7.057.689.261c-.52.759-1.062,1.487-1.62,2.189Zm.2-.537,1.574-4.149,1.525.578a41.858,41.858,0,0,1-2.277,3.882Zm1.778-4.686,1.575-4.149,1.809.686c-.546,1.413-1.15,2.766-1.8,4.063Zm4.9-14.525-.1.263-4.149-1.575,1.574-4.149.692.263Q327.333,372.383,328.455,374.948Zm-2.343-6.335q.066.219.134.437l-.262-.1Zm-.269-.909-.4,1.043-4.149-1.575,1.575-4.149,1.995.757Q325.287,365.754,325.843,367.7Zm-1.112-4.589-1.654-.628,1.072-2.825Q324.387,361.393,324.731,363.114Zm-.781-5.043c.014.125.031.25.045.375l-1.455,3.836-4.149-1.574,1.575-4.149Zm-.346-5.7v.012c-.112-.135-.225-.269-.34-.4C323.377,352.107,323.494,352.235,323.6,352.367Zm-1.449-1.582q.475.477.921.98l-1.131-.429Zm1.454,1.8q.036,2.428.277,4.852l-3.718-1.411,1.574-4.149Zm-1.9-2.247-.3.8-4.149-1.574.793-2.09A24.388,24.388,0,0,1,321.712,350.334Zm-4.155-3.178-.834,2.2-4.149-1.574.987-2.6c-.09-.035-.176-.075-.267-.11A25.744,25.744,0,0,1,317.557,347.156Zm-4.533-2.183-.987,2.6L307.888,346l.836-2.2A25.706,25.706,0,0,1,313.024,344.973Zm-9.519-1.549a24.331,24.331,0,0,1,4.638.285l-.792,2.088-4.149-1.574Zm3.641,2.911-1.574,4.149-4.149-1.574L303,344.761Zm-4.269-2.874-.212.56-1.161-.441C301.96,343.525,302.418,343.489,302.877,343.461Zm-2.537.292,2.121.8-1.574,4.149-4.149-1.575,1.066-2.812A25.574,25.574,0,0,1,300.34,343.753Zm-3.224.764-.915,2.411-2.662-1.009A26.454,26.454,0,0,1,297.116,344.516Zm-4.288,1.747,3.169,1.2-1.575,4.149-4.149-1.575,1.136-2.992C291.878,346.773,292.35,346.507,292.828,346.263Zm-2.214,1.262-.877,2.311-1.568-.594Q289.362,348.313,290.614,347.525Zm-2.959,2.136,1.878.712-1.575,4.149-3.889-1.476A33.385,33.385,0,0,1,287.655,349.661Zm-4.007,3.84,4.107,1.558-1.574,4.149-4.149-1.575,1.529-4.033Zm-1.211,1.447-.941,2.481-.689-.261C281.332,356.4,281.872,355.657,282.437,354.949Zm-1.968,2.707.822.312-1.554,4.1q-.294-1.092-.642-2.182C279.536,359.117,279.992,358.373,280.468,357.656Zm-.825,26.49,2.129.809L280.2,389.1l-2.128-.807A34.5,34.5,0,0,0,279.644,384.145ZM280,389.64l-1.575,4.149-2.786-1.057a33.545,33.545,0,0,0,2.192-3.913Zm-6.214-6.064.845,1.642q-.312.768-.666,1.517l-.334-.126c-.08-.482-.151-.969-.209-1.459-.052-.437-.092-.878-.126-1.322Zm-.537-.475c-.011-.209-.023-.417-.03-.627l.262.509Zm.413-1.227,1.135.431-.722.371Zm-.393-.764-.078-.151c0-.1.007-.206.008-.308,0,.1,0,.191,0,.286l1.422-3.75.347-.179,1.677.636a31.741,31.741,0,0,1-.846,4.147l-.311.16Zm-4.912-1.912c-.007.155-.01.311-.015.466l-1.406.724-2.12-4.12,4.052-2.084A43.853,43.853,0,0,0,268.353,379.2Zm.022,3.995-1.138-2.212,1.082-.557Q268.3,381.819,268.375,383.193ZM249.634,371.4l-4.12,2.12-2.12-4.12,4.12-2.12Zm-1.526-4.426,4.12-2.12,2.12,4.12-4.12,2.12Zm-5.019,1.831-2.12-4.12,4.12-2.12,2.119,4.12Zm-2.426-4.714-2.12-4.12,4.12-2.12,2.12,4.12Zm-.594.305-4.12,2.12-2.12-4.12,4.12-2.119Zm-4.714,2.426-4.12,2.119-2.12-4.12,4.12-2.12Zm.305.594,2.12,4.12-4.12,2.12-2.12-4.12Zm.594-.305,4.12-2.12,2.12,4.12-4.12,2.12Zm6.545,2.594,2.12,4.12-4.12,2.119-2.12-4.12Zm2.425,4.714,2.12,4.12-4.12,2.12-2.12-4.12Zm.594-.305,4.12-2.12,2.12,4.12-4.12,2.12Zm4.714-2.426,4.12-2.12,2.12,4.12-4.12,2.12Zm2.289-7.139,4.12-2.12,2.12,4.12-4.12,2.12Zm-.305-.594-2.12-4.12,4.12-2.12,2.12,4.12Zm-.594.306-4.12,2.12-2.12-4.12,4.12-2.12Zm-6.545-2.594-2.119-4.12,4.12-2.12,2.12,4.12Zm-2.425-4.715-2.12-4.12,4.12-2.12,2.12,4.12Zm-.594.306-4.12,2.12-2.12-4.12,4.12-2.12Zm-4.714,2.425-4.12,2.12-2.12-4.12,4.12-2.12Zm-4.714,2.425-4.12,2.12-2.12-4.12,4.12-2.12Zm-4.714,2.426-4.12,2.12-2.12-4.12,4.12-2.12Zm.305.594,2.12,4.12-4.12,2.12-2.12-4.12Zm2.425,4.714,2.12,4.12-4.12,2.12-2.12-4.12Zm2.426,4.714,2.12,4.12-4.12,2.12-2.12-4.12Zm.594-.305,4.12-2.12,2.12,4.12-4.12,2.12Zm6.545,2.594,2.12,4.12-4.12,2.12-2.12-4.12Zm2.425,4.714,2.12,4.12-4.12,2.12-2.119-4.12Zm.594-.305,4.12-2.12,2.12,4.12-4.12,2.119Zm4.714-2.425,4.12-2.12,2.12,4.12-4.12,2.12Zm4.714-2.426,4.12-2.12,2.12,4.12-4.12,2.12Zm4.714-2.425,4.12-2.12,2.12,4.12-4.12,2.12Zm-.306-.594-2.12-4.12,4.12-2.12,2.12,4.12Zm.169-11.26,4.12-2.12,2.12,4.12-4.12,2.12Zm-.305-.594-2.12-4.12,4.12-2.12,2.119,4.12Zm-2.426-4.714-2.12-4.12,4.12-2.119,2.12,4.12Zm-.594.306-4.12,2.119-2.119-4.12,4.12-2.12Zm-6.546-2.6-2.12-4.12,4.12-2.12,2.12,4.12Zm-2.425-4.714-2.12-4.12,4.12-2.12,2.119,4.12Zm-.594.306-4.12,2.12-2.12-4.12,4.12-2.12Zm-4.714,2.425-4.12,2.12-2.12-4.12,4.12-2.121Zm-4.715,2.425-4.12,2.12-2.12-4.12,4.12-2.12ZM230.5,357.4l-4.12,2.12-2.12-4.12,4.12-2.12Zm-4.714,2.426-4.12,2.12-2.12-4.12,4.12-2.12Zm-4.714,2.425-4.123,2.121-2.12-4.12,4.124-2.121Zm.306.594,2.12,4.12-4.124,2.121-2.12-4.12Zm2.425,4.713,2.12,4.12L221.8,373.8l-2.12-4.12Zm2.425,4.715,2.12,4.12-4.123,2.121-2.12-4.12Zm2.426,4.714,2.12,4.12-4.124,2.121-2.12-4.12Zm2.425,4.714,2.12,4.12-4.124,2.121-2.119-4.12Zm.594-.306,4.12-2.119,2.12,4.12-4.12,2.12Zm6.545,2.594,2.12,4.12-4.12,2.12L234.1,386.1Zm2.425,4.714,2.12,4.12-4.12,2.12-2.12-4.12Zm.594-.305,4.12-2.12,2.12,4.12-4.12,2.12Zm4.714-2.425,4.12-2.12,2.12,4.12-4.12,2.12Zm4.714-2.425,4.12-2.12,2.12,4.12-4.12,2.12Zm4.714-2.426L259.5,379l2.12,4.12-4.12,2.12Zm4.714-2.425,4.12-2.12,2.12,4.12-4.12,2.12Zm4.408-3.019-2.119-4.12,4.12-2.12,2.12,4.12Zm-2.425-4.714-2.12-4.12,4.12-2.12,2.12,4.12Zm.169-11.259,4.12-2.12,2.12,4.12-4.12,2.12Zm-.305-.594-2.12-4.12,4.12-2.12,2.119,4.12Zm-2.426-4.714-2.12-4.12,4.12-2.12,2.12,4.12Zm-2.425-4.714-2.12-4.12,4.12-2.12,2.12,4.12Zm-.594.305-4.12,2.12-2.12-4.12,4.12-2.12Zm-6.545-2.594-2.12-4.12,4.12-2.12,2.119,4.12Zm-2.425-4.714-2.121-4.123,4.12-2.12,2.121,4.124Zm-.594.306-4.12,2.12-2.121-4.124,4.12-2.12Zm-4.714,2.425-4.12,2.12L235.98,343.4l4.12-2.119Zm-4.714,2.425-4.12,2.12-2.121-4.123,4.12-2.12Zm-4.714,2.425-4.12,2.12-2.121-4.123,4.12-2.12Zm-4.714,2.426-4.12,2.12-2.121-4.124,4.12-2.12Zm-4.714,2.425-4.12,2.12-2.121-4.123,4.12-2.12Zm-4.714,2.425-4.123,2.121-2.121-4.123,4.123-2.121Zm-2.291,7.141-4.12,2.12-2.12-4.12,4.12-2.12Zm.305.594,2.12,4.12-4.12,2.12-2.12-4.12Zm2.425,4.714,2.12,4.12-4.12,2.12-2.12-4.12Zm2.426,4.714,2.119,4.12-4.12,2.12-2.12-4.12Zm2.425,4.714,2.12,4.12-4.12,2.119-2.12-4.12Zm2.425,4.714,2.12,4.12-4.12,2.12-2.119-4.12Zm2.425,4.714,2.12,4.12-4.12,2.12-2.12-4.12Zm.594-.306,4.123-2.121,2.12,4.12-4.123,2.121Zm6.548,2.593,2.12,4.12-4.123,2.121-2.12-4.12Zm2.426,4.714,2.12,4.12-4.124,2.121-2.12-4.12Zm.594-.306,4.12-2.119,2.12,4.12-4.12,2.12Zm4.714-2.425,4.12-2.12,2.12,4.12-4.12,2.12Zm4.714-2.425,4.12-2.12,2.12,4.12L250.5,394.8Zm4.714-2.425,4.12-2.12,2.12,4.12-4.12,2.12Zm4.714-2.425,4.12-2.12,2.12,4.12-4.12,2.12Zm4.714-2.426,4.12-2.12,1.865,3.627c.019.2.041.395.064.592l-3.93,2.022Zm6.135,2.805c.1.776.225,1.546.375,2.306.006.022.009.047.015.068q.337,2.2.646,4.215l.07.46q-.662.785-1.382,1.535l-3.434-6.675Zm.417-13.246-1.975-3.839,3.365-1.731A47.692,47.692,0,0,0,269.075,372.966Zm-2.281-4.432-2.12-4.12,4.12-2.119,2.038,3.96c-.028.082-.058.163-.085.246Zm2.594-6.546,4.134-2.126a49.308,49.308,0,0,0-2.109,4.77c-.1.254-.181.508-.273.762Zm4.025,15.064c.022-.2.049-.4.075-.6l.632.24Zm.437.527-.606,1.6c.023-.442.052-.886.091-1.333Zm1.118-1.326.428-1.128.37.718Zm1.1.184.242.47-.664-.252Zm.594-.305.147-.076c-.008.1-.019.2-.029.306Zm.205-.857-.511.263-.644-1.253.78-2.055.433.164Q276.959,373.848,276.87,375.275Zm-.709-3.786-1.186-.45,1.685-.867Zm.75.284-.213-.081.184-.486C276.893,371.4,276.9,371.584,276.911,371.773Zm-.7-5.858c.017.084.032.167.048.25l-.128-.048C276.156,366.048,276.184,365.982,276.209,365.914Zm-.185.468c-.034.09-.064.18-.1.271l.453.172q.225,1.284.358,2.556l-2.04,1.049Q275.256,368.417,276.024,366.382Zm-1.559,4.919,0,0c-.013.05-.026.1-.038.148l1.525.579-.6,1.571-.989-1.923C274.4,371.55,274.434,371.426,274.465,371.3Zm.577,3.136-.66,1.737-.82-.311q.221-1.579.574-3.185Zm-.941-15.68-.042.077-4.977,2.56-2.12-4.12,5.26-2.706Q273.283,356.662,274.1,358.757Zm-2.183-4.782-5.26,2.706-2.12-4.12,5.036-2.591Q270.818,351.87,271.918,353.975ZM269.2,349.41l-4.969,2.557-2.12-4.12,4.252-2.187A42.93,42.93,0,0,1,269.2,349.41Zm-3.288-4.27-4.108,2.113-2.12-4.12,2.8-1.442A38.589,38.589,0,0,1,265.915,345.14Zm-8.141-6.984a35.02,35.02,0,0,1,4.176,3.061l-2.568,1.322-2.12-4.12Zm-.669-.408-.147.077-.118-.23C256.927,337.646,257.017,337.7,257.1,337.749Zm1.684,5.1-4.12,2.12-2.12-4.12,4.12-2.121Zm-3-5.836.577,1.122-4.12,2.12-2.121-4.123,1.718-.884A31.746,31.746,0,0,1,255.786,337.008Zm-4.815-2.069-1.155.594-.573-1.115Q250.112,334.653,250.971,334.939Zm-2.593-.741.844,1.641-4.12,2.12-2.339-4.547A29.986,29.986,0,0,1,248.378,334.2ZM242,333.387l2.509,4.877-4.12,2.12-3.433-6.673A30.551,30.551,0,0,1,242,333.387Zm-5.738.435,3.533,6.867-4.12,2.12-4.033-7.839A32.435,32.435,0,0,1,236.261,333.822ZM231,335.186l4.079,7.928-4.12,2.12L226.726,337A35.63,35.63,0,0,1,231,335.186Zm-4.869,2.123,4.235,8.231-4.12,2.12-4.079-7.929A35.553,35.553,0,0,1,226.131,337.309Zm-4.513,2.817,4.033,7.839-4.12,2.12L218,343.217A32.432,32.432,0,0,1,221.619,340.126Zm-4.114,3.591,3.433,6.673-4.12,2.12-2.509-4.877A30.485,30.485,0,0,1,217.5,343.717Zm-3.62,4.551,2.34,4.547-4.123,2.121-.843-1.638A30,30,0,0,1,213.884,348.268Zm-2.95,5.862.573,1.113-1.152.593Q210.62,354.972,210.934,354.13Zm-.838,2.589,1.716-.883,2.121,4.123-4.12,2.12-.576-1.12A31.762,31.762,0,0,1,210.1,356.719Zm-.994,5.44.117.226-.146.075C209.083,362.359,209.093,362.259,209.1,362.159Zm-.086,1.082.508-.262,2.12,4.12-2.565,1.319A35.04,35.04,0,0,1,209.017,363.24Zm.132,5.894,2.8-1.442,2.119,4.12-4.105,2.113A38.835,38.835,0,0,1,209.149,369.134Zm.977,5.459,4.25-2.187,2.12,4.12-4.968,2.556A43.23,43.23,0,0,1,210.126,374.593Zm1.641,5.118,5.034-2.59,2.12,4.12-5.258,2.7Q212.591,381.829,211.767,379.711Zm2.2,4.829,5.258-2.705,2.12,4.12-5.035,2.589Q215.069,386.644,213.968,384.54Zm2.716,4.564,4.968-2.556,2.12,4.12-4.25,2.187A43.234,43.234,0,0,1,216.684,389.1Zm3.288,4.271,4.105-2.113,2.12,4.12-2.8,1.441A38.685,38.685,0,0,1,219.972,393.375Zm8.142,6.984a35.06,35.06,0,0,1-4.177-3.062l2.565-1.32,2.12,4.12Zm.668.407.146-.075.116.226C228.957,400.867,228.869,400.817,228.782,400.766Zm-1.686-5.094,4.12-2.12,2.12,4.12-4.12,2.12Zm3,5.833-.575-1.119,4.12-2.12,2.12,4.12-1.719.884A31.774,31.774,0,0,1,230.1,401.5Zm4.815,2.07,1.155-.594.574,1.116Q235.77,403.861,234.912,403.574Zm2.593.741-.844-1.641,4.123-2.121,2.341,4.551A29.973,29.973,0,0,1,237.505,404.315Zm6.383.812-2.51-4.88,4.12-2.119,3.434,6.675A30.459,30.459,0,0,1,243.888,405.127Zm9.589-1.342a32.335,32.335,0,0,1-3.851.907l-3.535-6.87,4.12-2.12,3.661,7.116A3.33,3.33,0,0,0,253.477,403.785Zm1.707-2.193a3.279,3.279,0,0,0-.861.642l-3.518-6.837,4.12-2.12,3.437,6.68Zm6.949-3.575-3.177,1.635-3.437-6.68,4.12-2.12,3.518,6.837A3.3,3.3,0,0,0,262.133,398.017Zm-1.9-7.471,4.12-2.119,3.534,6.869a32.173,32.173,0,0,1-2.978,2.607,3.308,3.308,0,0,0-1.015-.24Zm4.082,15.171,1.407-.724a3.31,3.31,0,0,0,1.74-3.543,36.706,36.706,0,0,0,3.143-2.68c2.518,16.5,3.4,22.361,4.113,27.167Zm10.635-21.329-.574-1.117,1.157-.6Q275.266,383.542,274.951,384.388Zm.6,8.927,2.663,1.011-.913,2.4c-.265-.436-.523-.878-.763-1.331C276.184,394.724,275.857,394.028,275.555,393.315Zm2.764,54.387a3.625,3.625,0,0,0-.923-1.066l.973-2.564A24.078,24.078,0,0,0,278.319,447.7Zm19.317-30.571c-8.727,7.27-11.008,9.191-16.232,13.589a.647.647,0,0,1-1.057-.4l-.012-.082c-.822-5.614-1.262-8.62-3.124-20.857a2.025,2.025,0,0,1,3.226-1.92,30.363,30.363,0,0,0,16.06,6.094A2.025,2.025,0,0,1,297.636,417.131Zm-2.709-8.713.793-2.092,4.149,1.575-.3.793A24.427,24.427,0,0,1,294.927,408.418Zm35.343-9.192q-.618.651-1.216,1.316A62.463,62.463,0,0,0,317.7,418.6v0q-.393.952-.753,1.918c-.487,1.313-.936,2.643-1.334,4q-.189.627-.36,1.259c-.62-.387-1.259-.754-1.924-1.091a24.014,24.014,0,0,0-14.2-2.37c3.57-2.975,8.326-6.934,15.137-12.6l3.271-2.722.06-.046a38.044,38.044,0,0,0,4-3.515q1.409-1.42,2.7-3.006a46.755,46.755,0,0,0,7.373-12.931c.518-1.365.963-2.738,1.352-4.115a58.519,58.519,0,0,0,5.179,6.787c.367.414.739.82,1.115,1.222A62.863,62.863,0,0,0,330.27,399.226Z" transform="translate(-6.195 -277.795)" fill="url(#linear-gradient-3)"/>
        <path id="Path_4" data-name="Path 4" d="M156.257,465.126l-14.28-49.267-.4-1.761-1.822-7.947-4.382-19.128L111.308,281.96a10.967,10.967,0,0,0-13.531-7.584l-6.14,1.728a10.613,10.613,0,0,0-1.649.614,10.96,10.96,0,0,0-5.935,12.914l13.961,41.617,8.751,26.093A84.679,84.679,0,1,0,127.4,418.866l.337,1,13.515,49.482v0a6.2,6.2,0,0,0,4.841,11.3l7.7-2.166,4.232-1.19a6.2,6.2,0,0,0-1.772-12.171Z" transform="translate(41.751 -273.962)" fill="url(#linear-gradient-4)"/>
        <path id="Path_5" data-name="Path 5" d="M281.454,321.688h0c0,.089.006.182.01.272.007.111.013.224.023.336a11.314,11.314,0,0,0,2.319,6.035c.085.11.177.213.267.32a11.2,11.2,0,0,0,4.989,3.459c.024.009.048.019.073.027s.064.019.1.03a11.333,11.333,0,0,0,6.641.128l.114-.035c.055-.016.11-.032.164-.05.091-.027.185-.059.275-.09.175-.06.347-.122.518-.191.084-.034.167-.072.25-.107s.184-.075.275-.117A11.24,11.24,0,0,0,302,327.932a11.448,11.448,0,0,0,1.038-1.811,11.162,11.162,0,0,0,.917-3.175c.007-.05.012-.1.018-.148s.012-.089.017-.133c.01-.093.019-.187.027-.281.01-.118.016-.238.023-.358,0-.061.009-.122.011-.183s0-.123,0-.184c0-.132,0-.264,0-.395a11.3,11.3,0,0,0-14.877-10.56c-.191.064-.381.133-.566.2l-.091.038-.172.069c-.083.035-.165.072-.248.11-.048.021-.093.043-.141.065l-.122.056c-.05.024-.1.051-.151.077s-.073.035-.109.055h0a11.338,11.338,0,0,0-5.343,5.9l0,0a11.246,11.246,0,0,0-.748,3.249h0c-.015.2-.025.393-.03.59,0,.026,0,.051,0,.077,0,.072,0,.146,0,.217s0,.129,0,.193C281.454,321.635,281.454,321.662,281.454,321.688Z" transform="translate(-21.144 -280.999)" fill="url(#linear-gradient-5)"/>
      </g>
      <rect id="Rectangle_2" data-name="Rectangle 2" width="402.7" height="191.36" transform="translate(-24.141 258.38)" fill="none"/>
      <path id="Path_6" data-name="Path 6" d="M187.252,298.424s31.523,25.787,24.991,32.841l-.354.287c-8.257,4.923-26.933-31.269-26.933-31.269" transform="translate(-60.134 -11.034)" fill="url(#linear-gradient-6)"/>
      <path id="Path_7" data-name="Path 7" d="M179.07,304.064c10.113,15.893,3.914,34.176,8.337,39.507s17.061-12.863-6.653-42.143" transform="translate(-58.988 -11.618)" fill="url(#linear-gradient-7)"/>
      <path id="Path_8" data-name="Path 8" d="M181.919,302.074c12.35,15.249,10.756,34.9,15.822,38.007s6.74-5.565,1.562-16.543-15.077-23.332-15.077-23.332" transform="translate(-59.543 -11.381)" fill="url(#linear-gradient-8)"/>
      <path id="Path_9" data-name="Path 9" d="M192.2,293.49c13.445,13.195,32.617,10.929,36.912,16.363s-16.127,14.016-39.842-15.264" transform="translate(-60.974 -10.074)" fill="url(#linear-gradient-9)"/>
      <path id="Path_10" data-name="Path 10" d="M189.635,295.825c12.35,15.249,31.9,17.77,33.89,23.373s-6.843,5.436-16.506-1.909-19.69-19.6-19.69-19.6" transform="translate(-60.595 -10.528)" fill="url(#linear-gradient-10)"/>
      <path id="Path_11" data-name="Path 11" d="M188.171,290.672,176.895,299.8l-3.151-3.891a7.255,7.255,0,0,1,1.071-10.2h0a7.256,7.256,0,0,1,10.205,1.071Z" transform="translate(-57.637 -8.245)" fill="url(#linear-gradient-11)"/>
      <rect id="Rectangle_3" data-name="Rectangle 3" width="15.913" height="4.145" rx="1.652" transform="translate(117.409 290.391) rotate(-39.005)" fill="url(#linear-gradient-12)"/>
      <path id="Path_12" data-name="Path 12" d="M313.056,315.515a12.692,12.692,0,0,1-7.29,9.835c-.194.089-.391.173-.589.251s-.386.147-.582.214c-.1.036-.206.071-.309.1s-.208.064-.312.1a12.693,12.693,0,0,1-16.153-11.227c-.01-.126-.016-.252-.025-.377,0-.1-.008-.205-.01-.307s0-.2,0-.305,0-.218.006-.33c.006-.22.016-.439.034-.661a12.629,12.629,0,0,1,.84-3.648l0-.006a12.735,12.735,0,0,1,6-6.627c.1-.053.2-.1.292-.148s.2-.093.3-.136.185-.083.279-.123.195-.082.3-.12c.208-.081.421-.158.635-.23a12.69,12.69,0,0,1,16.706,11.859q0,.324,0,.651c-.007.2-.019.407-.037.608-.01.1-.019.21-.031.315S313.073,315.409,313.056,315.515Z" transform="translate(-80.144 -11.558)" fill="url(#linear-gradient-13)"/>
      <g id="Group_9" data-name="Group 9" transform="translate(207.64 290.439)">
        <g id="Group_7" data-name="Group 7" transform="translate(6.882 0)">
          <path id="Path_13" data-name="Path 13" d="M314.721,315.728a8.886,8.886,0,0,0-5.433-1.358,8.26,8.26,0,0,1-5.734-1.66,8.5,8.5,0,0,1-2.61-2.719,11,11,0,0,1-.888-2.113,9.187,9.187,0,0,0-3.727-5.142c.1-.051.195-.1.292-.146s.2-.093.295-.138l.279-.122c.1-.041.195-.082.3-.12a10.017,10.017,0,0,1,3.632,5.3,9.731,9.731,0,0,0,.873,2.04,7.517,7.517,0,0,0,2.209,2.232,7.152,7.152,0,0,0,5.062,1.455,9.862,9.862,0,0,1,5.561,1.248c-.007.2-.019.407-.038.608-.01.105-.019.211-.031.316S314.736,315.621,314.721,315.728Z" transform="translate(-296.329 -302.209)" fill="url(#linear-gradient-14)"/>
        </g>
        <g id="Group_8" data-name="Group 8" transform="translate(0 11.47)">
          <path id="Path_14" data-name="Path 14" d="M305.178,328.586c-.192.076-.385.147-.582.214-.1.035-.207.07-.31.1s-.207.064-.311.1a9.812,9.812,0,0,1-2.5-4.279,8.059,8.059,0,0,0-8.143-5.725c-.309,0-.627.01-.956,0a9.4,9.4,0,0,1-4.559-1.227c-.01-.126-.016-.252-.025-.377,0-.1-.007-.205-.01-.307s0-.2,0-.305,0-.218.006-.329a8.82,8.82,0,0,0,5.323,1.414c.069,0,.137,0,.206,0a9.188,9.188,0,0,1,9.232,6.492A8.776,8.776,0,0,0,305.178,328.586Z" transform="translate(-287.784 -316.451)" fill="url(#linear-gradient-15)"/>
        </g>
      </g>
      <g id="Group_12" data-name="Group 12" transform="translate(207.64 290.21)">
        <g id="Group_10" data-name="Group 10" transform="translate(7.469 0)">
          <path id="Path_15" data-name="Path 15" d="M314.932,315.041a8.813,8.813,0,0,0-5.167-1.2,8.254,8.254,0,0,1-5.732-1.659,8.747,8.747,0,0,1-2.455-2.457,10.353,10.353,0,0,1-1.045-2.376,9.052,9.052,0,0,0-3.475-4.948l.279-.122c.1-.041.195-.082.3-.12.209-.081.422-.157.635-.229a9.92,9.92,0,0,1,3.334,5.056,8.745,8.745,0,0,0,1.061,2.333,7.912,7.912,0,0,0,2.02,1.938,7.141,7.141,0,0,0,5.061,1.456,9.8,9.8,0,0,1,5.23,1.075q.006.325,0,.65C314.963,314.636,314.951,314.84,314.932,315.041Z" transform="translate(-297.058 -301.925)" fill="#fff"/>
        </g>
        <g id="Group_11" data-name="Group 11" transform="translate(0 11.037)">
          <path id="Path_16" data-name="Path 16" d="M305.767,328.175c-.194.089-.391.172-.589.251s-.385.147-.582.214a9.789,9.789,0,0,1-2.779-4.56,8.062,8.062,0,0,0-8.144-5.726c-.324.006-.656.012-1,0a9.631,9.631,0,0,1-4.885-1.433h0c0-.1,0-.2,0-.3s0-.218.006-.329c0-.221.016-.441.033-.662a8.958,8.958,0,0,0,5.643,1.6l.188,0a9.178,9.178,0,0,1,9.232,6.492A8.833,8.833,0,0,0,305.767,328.175Z" transform="translate(-287.784 -315.629)" fill="#fff"/>
        </g>
      </g>
      <path id="Path_17" data-name="Path 17" d="M311.5,322.864a12.624,12.624,0,0,1-5.095,4.238c-.194.089-.391.172-.589.251s-.385.147-.582.214c-.1.035-.207.07-.31.1s-.207.064-.311.1a12.7,12.7,0,0,1-13.549-4.451,15.627,15.627,0,0,1,1.955-5.55q.143-.243.292-.478c.14-.223.287-.44.44-.653.113-.162.231-.321.353-.477a15.472,15.472,0,0,1,5.815-4.626c.163-.076.328-.147.493-.216.186-.079.37-.151.56-.221.174-.064.35-.126.525-.184a15.473,15.473,0,0,1,11.721.816,12.67,12.67,0,0,1,.59,3.653q.006.325,0,.65c-.007.2-.019.407-.038.608-.01.105-.019.211-.031.316s-.023.209-.038.316A12.625,12.625,0,0,1,311.5,322.864Z" transform="translate(-80.783 -13.31)" opacity="0.74" fill="url(#linear-gradient-16)"/>
      <path id="Path_18" data-name="Path 18" d="M309.988,305.16c-6.443-4-16.344-3.763-21.109,3.991a12.735,12.735,0,0,1,6-6.627c.1-.053.2-.1.292-.148s.2-.093.3-.136.185-.083.279-.123.195-.082.3-.12c.208-.081.421-.158.635-.23a12.724,12.724,0,0,1,13.311,3.393Z" transform="translate(-80.357 -11.558)" fill="#fff" opacity="0.28" style="mix-blend-mode: overlay;isolation: isolate"/>
      <g id="Group_18" data-name="Group 18" transform="translate(56.136 256.543)">
        <g id="Group_17" data-name="Group 17" transform="translate(0 0)">
          <g id="Group_16" data-name="Group 16">
            <path id="Path_19" data-name="Path 19" d="M183.095,481.635l-6.512,1.832-10.442,2.94-1.772-6.487v0l-15.178-55.565-.644-1.921-2.912-8.682-29.82-88.912L100.139,278.1a12.307,12.307,0,0,1,6.665-14.5,11.833,11.833,0,0,1,1.852-.689l6.894-1.941a12.314,12.314,0,0,1,15.194,8.517l27.021,117.979,4.921,21.48,2.046,8.924.451,1.977,16.036,55.323Z" transform="translate(-99.674 -260.198)" fill="url(#linear-gradient-17)"/>
            <path id="Path_20" data-name="Path 20" d="M159.488,387.468c-15.371-37.2-27.094-103.9-29.449-113.884-2.062-8.735-11.566-13.2-21.512-9.983a11.833,11.833,0,0,1,1.852-.689l6.894-1.941a12.314,12.314,0,0,1,15.194,8.517Z" transform="translate(-101.397 -260.198)" fill="#fff" opacity="0.28" style="mix-blend-mode: overlay;isolation: isolate"/>
            <ellipse id="Ellipse_1" data-name="Ellipse 1" cx="11.432" cy="5.196" rx="11.432" ry="5.196" transform="translate(1.917 6.468) rotate(-16.434)" fill="url(#linear-gradient-18)"/>
            <path id="Path_21" data-name="Path 21" d="M203.088,534.01a6.964,6.964,0,0,1-5.074,6.7l-4.752,1.337-8.65,2.432a6.961,6.961,0,0,1-5.436-12.689,7.047,7.047,0,0,1,1.663-.713l8.658-2.436,4.744-1.337a6.854,6.854,0,0,1,1.784-.262,6.971,6.971,0,0,1,7.063,6.971Z" transform="translate(-114.481 -312.065)" fill="url(#linear-gradient-19)"/>
          </g>
          <path id="Path_22" data-name="Path 22" d="M175.837,453.738l-7.128,2.009-9.057,2.549-2.911-8.682,9.145-2.573,7.905-2.227Z" transform="translate(-110.779 -296.064)" fill="url(#linear-gradient-20)"/>
        </g>
        <path id="Path_23" data-name="Path 23" d="M182.356,505.72l-8.65,2.432a6.961,6.961,0,0,1-5.436-12.689v0l-15.178-55.565-.644-1.921-2.912-8.682-29.82-88.912a197.5,197.5,0,0,1,20.94,37.133c5.855,13.643,12.089,31.129,18.025,49.206q1.426,4.337,2.823,8.706c6.528,20.4,12.544,40.886,17.087,56.889.664,2.332,1.3,4.571,1.893,6.7C181.152,501.391,181.776,503.634,182.356,505.72Z" transform="translate(-103.574 -275.741)" opacity="0.74" fill="url(#linear-gradient-21)"/>
      </g>
      <rect id="Rectangle_4" data-name="Rectangle 4" width="103.709" height="208.016" transform="translate(49.013 241.723)" fill="none"/>
      <g id="Group_23" data-name="Group 23" transform="translate(-124.056 278.478)">
        <circle id="Ellipse_2" data-name="Ellipse 2" cx="95.089" cy="95.089" r="95.089" transform="translate(0 134.476) rotate(-45)" fill="#141751"/>
        <g id="Group_22" data-name="Group 22" transform="translate(0)" clip-path="url(#clip-path)">
          <g id="Group_21" data-name="Group 21" transform="translate(-35.59 -36.061)">
            <path id="Path_24" data-name="Path 24" d="M-114.54,473.576h-35.8l-17.9,31.007,17.9,31.007h35.8l17.9-31.007Z" transform="translate(168.245 -287.536)" fill="url(#linear-gradient-22)"/>
            <path id="Path_25" data-name="Path 25" d="M-47.859,435.078h-35.8l-17.9,31.007,17.9,31.007h35.8l17.9-31.007Z" transform="translate(155.269 -280.044)" fill="url(#linear-gradient-23)"/>
            <path id="Path_26" data-name="Path 26" d="M-47.859,512.075h-35.8l-17.9,31.007,17.9,31.007h35.8l17.9-31.007Z" transform="translate(155.269 -295.028)" fill="url(#linear-gradient-24)"/>
            <path id="Path_27" data-name="Path 27" d="M18.823,473.576h-35.8l-17.9,31.007,17.9,31.007h35.8l17.9-31.007Z" transform="translate(142.293 -287.536)" fill="url(#linear-gradient-25)"/>
            <path id="Path_28" data-name="Path 28" d="M85.5,435.078H49.7L31.8,466.084l17.9,31.007H85.5l17.9-31.007Z" transform="translate(129.317 -280.044)" fill="url(#linear-gradient-26)"/>
            <path id="Path_29" data-name="Path 29" d="M85.5,512.075H49.7L31.8,543.081l17.9,31.007H85.5l17.9-31.007Z" transform="translate(129.317 -295.028)" fill="url(#linear-gradient-27)"/>
            <path id="Path_30" data-name="Path 30" d="M-114.54,319.582h-35.8l-17.9,31.007,17.9,31.007h35.8l17.9-31.007Z" transform="translate(168.245 -257.569)" fill="url(#linear-gradient-22)"/>
            <path id="Path_31" data-name="Path 31" d="M-47.859,281.084h-35.8l-17.9,31.007,17.9,31.007h35.8l17.9-31.007Z" transform="translate(155.269 -250.077)" fill="url(#linear-gradient-22)"/>
            <path id="Path_32" data-name="Path 32" d="M-47.859,358.081h-35.8l-17.9,31.007,17.9,31.007h35.8l17.9-31.007Z" transform="translate(155.269 -265.06)" fill="#2e2e44"/>
            <path id="Path_33" data-name="Path 33" d="M18.823,319.582h-35.8l-17.9,31.007,17.9,31.007h35.8l17.9-31.007Z" transform="translate(142.293 -257.569)" fill="url(#linear-gradient-30)"/>
            <path id="Path_34" data-name="Path 34" d="M-114.54,242.585h-35.8l-17.9,31.007,17.9,31.007h35.8l17.9-31.007Z" transform="translate(168.245 -242.585)" fill="url(#linear-gradient-22)"/>
            <path id="Path_35" data-name="Path 35" d="M18.823,242.585h-35.8l-17.9,31.007,17.9,31.007h35.8l17.9-31.007Z" transform="translate(142.293 -242.585)" fill="url(#linear-gradient-22)"/>
            <path id="Path_36" data-name="Path 36" d="M-114.54,396.579h-35.8l-17.9,31.007,17.9,31.007h35.8l17.9-31.007Z" transform="translate(168.245 -272.552)" fill="url(#linear-gradient-22)"/>
            <path id="Path_37" data-name="Path 37" d="M18.823,396.579h-35.8l-17.9,31.007,17.9,31.007h35.8l17.9-31.007Z" transform="translate(142.293 -272.552)" fill="url(#linear-gradient-34)"/>
            <path id="Path_38" data-name="Path 38" d="M85.5,281.084H49.7L31.8,312.09,49.7,343.1H85.5l17.9-31.007Z" transform="translate(129.317 -250.077)" fill="url(#linear-gradient-35)"/>
            <path id="Path_39" data-name="Path 39" d="M85.5,358.081H49.7L31.8,389.087l17.9,31.007H85.5l17.9-31.007Z" transform="translate(129.317 -265.06)" fill="#2e2e44"/>
            <path id="Path_40" data-name="Path 40" d="M152.185,473.576h-35.8l-17.9,31.007,17.9,31.007h35.8l17.9-31.007Z" transform="translate(116.341 -287.536)" fill="#2e2e44"/>
            <path id="Path_41" data-name="Path 41" d="M-114.54,550.573h-35.8l-17.9,31.007,17.9,31.007h35.8l17.9-31.007Z" transform="translate(168.245 -302.52)" fill="url(#linear-gradient-22)"/>
            <path id="Path_42" data-name="Path 42" d="M-47.859,589.072h-35.8l-17.9,31.007,17.9,31.007h35.8l17.9-31.007Z" transform="translate(155.269 -310.011)" fill="url(#linear-gradient-22)"/>
            <path id="Path_43" data-name="Path 43" d="M18.823,550.573h-35.8l-17.9,31.007,17.9,31.007h35.8l17.9-31.007Z" transform="translate(142.293 -302.52)" fill="url(#linear-gradient-22)"/>
            <path id="Path_44" data-name="Path 44" d="M85.5,589.072H49.7L31.8,620.078l17.9,31.007H85.5l17.9-31.007Z" transform="translate(129.317 -310.011)" fill="url(#linear-gradient-22)"/>
            <path id="Path_45" data-name="Path 45" d="M152.185,550.573h-35.8L98.48,581.58l17.9,31.007h35.8l17.9-31.007Z" transform="translate(116.341 -302.52)" fill="url(#linear-gradient-22)"/>
            <path id="Path_46" data-name="Path 46" d="M218.867,435.078h-35.8l-17.9,31.007,17.9,31.007h35.8l17.9-31.007Z" transform="translate(103.364 -280.044)" fill="url(#linear-gradient-22)"/>
            <path id="Path_47" data-name="Path 47" d="M218.867,512.075h-35.8l-17.9,31.007,17.9,31.007h35.8l17.9-31.007Z" transform="translate(103.364 -295.028)" fill="url(#linear-gradient-22)"/>
            <path id="Path_48" data-name="Path 48" d="M218.867,589.072h-35.8l-17.9,31.007,17.9,31.007h35.8l17.9-31.007Z" transform="translate(103.364 -310.011)" fill="url(#linear-gradient-22)"/>
            <path id="Path_49" data-name="Path 49" d="M152.185,319.582h-35.8l-17.9,31.007,17.9,31.007h35.8l17.9-31.007Z" transform="translate(116.341 -257.569)" fill="url(#linear-gradient-44)"/>
            <path id="Path_50" data-name="Path 50" d="M152.185,242.585h-35.8l-17.9,31.007,17.9,31.007h35.8l17.9-31.007Z" transform="translate(116.341 -242.585)" fill="url(#linear-gradient-22)"/>
            <path id="Path_51" data-name="Path 51" d="M152.185,396.579h-35.8l-17.9,31.007,17.9,31.007h35.8l17.9-31.007Z" transform="translate(116.341 -272.552)" fill="url(#linear-gradient-46)"/>
            <path id="Path_52" data-name="Path 52" d="M218.867,281.084h-35.8l-17.9,31.007,17.9,31.007h35.8l17.9-31.007Z" transform="translate(103.364 -250.077)" fill="url(#linear-gradient-22)"/>
            <path id="Path_53" data-name="Path 53" d="M218.867,358.081h-35.8l-17.9,31.007,17.9,31.007h35.8l17.9-31.007Z" transform="translate(103.364 -265.06)" fill="url(#linear-gradient-22)"/>
          </g>
          <circle id="Ellipse_3" data-name="Ellipse 3" cx="112.938" cy="112.938" r="112.938" transform="translate(-1.532 65.186)" opacity="0.74" fill="url(#linear-gradient-49)"/>
        </g>
      </g>
      <rect id="Rectangle_5" data-name="Rectangle 5" width="138.369" height="143.862" transform="translate(-24.141 305.877)" fill="none"/>
      <g id="Group_26" data-name="Group 26" transform="translate(128.611 404.583)">
        <path id="Path_54" data-name="Path 54" d="M234.119,485.848c-4.569,3.1-10.409,6.929-15.081,8.776a13.226,13.226,0,0,1-4.612,1.105,3.037,3.037,0,0,1-3.075-1.765c-1.042-2.367-3.248-3.272-6.023-3.969-3.466-.867-7.815-1.41-11.893-4.065-7.343-4.787-4.032-30.738,10.419-38.076,10.794-5.473,22.821-6.073,31.158,3.759a37.748,37.748,0,0,1,7.019,13.808l-4.492,7.087S242.29,480.317,234.119,485.848Z" transform="translate(-189.66 -443.933)" fill="url(#linear-gradient-50)"/>
        <path id="Path_55" data-name="Path 55" d="M218.212,502.271a3.037,3.037,0,0,1-3.075-1.765c-1.042-2.367-3.248-3.272-6.023-3.969,3.115-2.243,5.7-7.34,8.747-18.991l12.5,24.046C230.207,505.191,219.27,497.777,218.212,502.271Z" transform="translate(-193.445 -450.474)" fill="url(#linear-gradient-51)"/>
        <path id="Path_56" data-name="Path 56" d="M224.622,496.48c1.605-9.19-6.436-8-6.254-21.962.179-13.686,13.661-14.554,22.231-21.052a37.81,37.81,0,0,1,7.019,13.811l-4.492,7.085s4.75,7.808-3.422,13.342C235.135,490.8,229.3,494.63,224.622,496.48Z" transform="translate(-195.246 -445.788)" fill="url(#linear-gradient-52)"/>
        <path id="Path_57" data-name="Path 57" d="M234.951,502.945c-1.033-3.748,1.082-16.29,1.215-17.07l.01-.039s-13.517,1.7-16.637-7.106,6.444-17.668,20.581-17.057c12.18.523,14.02,5.053,15.057,22.455.168,2.791.312,5.912.476,9.4C256.621,504.292,236.021,506.816,234.951,502.945Z" transform="translate(-195.359 -447.379)" fill="url(#linear-gradient-53)"/>
        <path id="Path_58" data-name="Path 58" d="M238.75,508.2c-1.033-3.748,1.082-16.29,1.215-17.07l.01-.039c5.022-1.981,12.57-3.345,19-1.707.168,2.791.312,5.912.476,9.4C260.42,509.549,239.82,512.073,238.75,508.2Z" transform="translate(-199.157 -452.636)" fill="url(#linear-gradient-54)"/>
        <path id="Path_59" data-name="Path 59" d="M238.5,493.458c-7.121,6.869-19.962,6.764-20.966,12s4.178,13.862,10.649,12.985,30-10.957,29.665-20.212S254.709,481.937,238.5,493.458Z" transform="translate(-195.06 -452.404)" fill="url(#linear-gradient-55)"/>
      </g>
      <rect id="Rectangle_6" data-name="Rectangle 6" width="77.977" height="52.818" transform="translate(122.376 396.921)" fill="none"/>
      <g id="Group_42" data-name="Group 42" transform="translate(138.162 314.327)">
        <g id="Group_36" data-name="Group 36" transform="translate(54.775 10.684)">
          <g id="Group_35" data-name="Group 35" transform="translate(22.204 5.519)" opacity="0.62">
            <g id="Group_34" data-name="Group 34" clip-path="url(#clip-path-2)">
              <g id="Group_33" data-name="Group 33" transform="translate(-17.29 -10.461)">
                <g id="Group_30" data-name="Group 30" transform="translate(0 1.463)">
                  <g id="Group_29" data-name="Group 29" transform="translate(1.997)">
                    <line id="Line_1" data-name="Line 1" x2="74.296" y2="28.189" transform="translate(21.962)" fill="none" stroke="#96a3bc" stroke-linecap="round" stroke-linejoin="round" stroke-width="0.801"/>
                    <line id="Line_2" data-name="Line 2" x2="74.296" y2="28.189" transform="translate(19.965 5.262)" fill="none" stroke="#96a3bc" stroke-linecap="round" stroke-linejoin="round" stroke-width="0.801"/>
                    <line id="Line_3" data-name="Line 3" x2="74.296" y2="28.189" transform="translate(17.969 10.524)" fill="none" stroke="#96a3bc" stroke-linecap="round" stroke-linejoin="round" stroke-width="0.801"/>
                    <line id="Line_4" data-name="Line 4" x2="74.296" y2="28.189" transform="translate(15.972 15.786)" fill="none" stroke="#96a3bc" stroke-linecap="round" stroke-linejoin="round" stroke-width="0.801"/>
                    <line id="Line_5" data-name="Line 5" x2="74.296" y2="28.189" transform="translate(13.976 21.048)" fill="none" stroke="#96a3bc" stroke-linecap="round" stroke-linejoin="round" stroke-width="0.801"/>
                    <line id="Line_6" data-name="Line 6" x2="74.296" y2="28.189" transform="translate(11.979 26.31)" fill="none" stroke="#96a3bc" stroke-linecap="round" stroke-linejoin="round" stroke-width="0.801"/>
                    <line id="Line_7" data-name="Line 7" x2="74.296" y2="28.189" transform="translate(9.983 31.573)" fill="none" stroke="#96a3bc" stroke-linecap="round" stroke-linejoin="round" stroke-width="0.801"/>
                    <line id="Line_8" data-name="Line 8" x2="74.296" y2="28.189" transform="translate(7.986 36.835)" fill="none" stroke="#96a3bc" stroke-linecap="round" stroke-linejoin="round" stroke-width="0.801"/>
                    <line id="Line_9" data-name="Line 9" x2="74.296" y2="28.189" transform="translate(5.99 42.097)" fill="none" stroke="#96a3bc" stroke-linecap="round" stroke-linejoin="round" stroke-width="0.801"/>
                    <line id="Line_10" data-name="Line 10" x2="74.296" y2="28.189" transform="translate(3.993 47.359)" fill="none" stroke="#96a3bc" stroke-linecap="round" stroke-linejoin="round" stroke-width="0.801"/>
                    <line id="Line_11" data-name="Line 11" x2="74.296" y2="28.189" transform="translate(1.996 52.621)" fill="none" stroke="#96a3bc" stroke-linecap="round" stroke-linejoin="round" stroke-width="0.801"/>
                    <line id="Line_12" data-name="Line 12" x2="74.296" y2="28.189" transform="translate(0 57.883)" fill="none" stroke="#96a3bc" stroke-linecap="round" stroke-linejoin="round" stroke-width="0.801"/>
                  </g>
                  <line id="Line_13" data-name="Line 13" x2="74.296" y2="28.189" transform="translate(0 63.145)" fill="none" stroke="#96a3bc" stroke-linecap="round" stroke-linejoin="round" stroke-width="0.801"/>
                </g>
                <g id="Group_32" data-name="Group 32" transform="translate(8.722)">
                  <g id="Group_31" data-name="Group 31">
                    <line id="Line_14" data-name="Line 14" x1="28.189" y2="74.296" transform="translate(52.621 19.965)" fill="none" stroke="#96a3bc" stroke-linecap="round" stroke-linejoin="round" stroke-width="0.801"/>
                    <line id="Line_15" data-name="Line 15" x1="28.189" y2="74.296" transform="translate(47.359 17.969)" fill="none" stroke="#96a3bc" stroke-linecap="round" stroke-linejoin="round" stroke-width="0.801"/>
                    <line id="Line_16" data-name="Line 16" x1="28.189" y2="74.296" transform="translate(42.097 15.972)" fill="none" stroke="#96a3bc" stroke-linecap="round" stroke-linejoin="round" stroke-width="0.801"/>
                    <line id="Line_17" data-name="Line 17" x1="28.189" y2="74.296" transform="translate(36.835 13.976)" fill="none" stroke="#96a3bc" stroke-linecap="round" stroke-linejoin="round" stroke-width="0.801"/>
                    <line id="Line_18" data-name="Line 18" x1="28.189" y2="74.296" transform="translate(31.572 11.979)" fill="none" stroke="#96a3bc" stroke-linecap="round" stroke-linejoin="round" stroke-width="0.801"/>
                    <line id="Line_19" data-name="Line 19" x1="28.189" y2="74.296" transform="translate(26.31 9.983)" fill="none" stroke="#96a3bc" stroke-linecap="round" stroke-linejoin="round" stroke-width="0.801"/>
                    <line id="Line_20" data-name="Line 20" x1="28.189" y2="74.296" transform="translate(21.048 7.986)" fill="none" stroke="#96a3bc" stroke-linecap="round" stroke-linejoin="round" stroke-width="0.801"/>
                    <line id="Line_21" data-name="Line 21" x1="28.189" y2="74.296" transform="translate(15.786 5.99)" fill="none" stroke="#96a3bc" stroke-linecap="round" stroke-linejoin="round" stroke-width="0.801"/>
                    <line id="Line_22" data-name="Line 22" x1="28.189" y2="74.296" transform="translate(10.524 3.993)" fill="none" stroke="#96a3bc" stroke-linecap="round" stroke-linejoin="round" stroke-width="0.801"/>
                    <line id="Line_23" data-name="Line 23" x1="28.189" y2="74.296" transform="translate(5.262 1.997)" fill="none" stroke="#96a3bc" stroke-linecap="round" stroke-linejoin="round" stroke-width="0.801"/>
                    <line id="Line_24" data-name="Line 24" x1="28.189" y2="74.296" fill="none" stroke="#96a3bc" stroke-linecap="round" stroke-linejoin="round" stroke-width="0.801"/>
                  </g>
                </g>
              </g>
            </g>
          </g>
          <path id="Path_61" data-name="Path 61" d="M360.869,368.588a33.554,33.554,0,0,0-49.212-18.672c-8.73,5.081-15.788,13.807-19.872,24.572a52.475,52.475,0,0,0-3.437,16.357,45.021,45.021,0,0,0,.027,4.535,42.647,42.647,0,0,0,.738,5.93c.006.024.01.051.015.076q.379,2.471.726,4.733c4.757,31.133,5.217,34.28,6.469,42.838.234,1.6.5,3.395.819,5.59L280.01,499.7l5.179,1.964,17.131-45.151,4.253-3.577c8.11-6.827,9.891-8.329,33.328-27.827q1.754-1.462,3.674-3.057c.021-.018.046-.034.068-.052a42.612,42.612,0,0,0,4.489-3.947q1.581-1.593,3.028-3.375a52.482,52.482,0,0,0,8.279-14.52C363.524,389.393,364.03,378.181,360.869,368.588ZM303,448.7h0a.728.728,0,0,1-1.187-.452l-.014-.093c-.922-6.3-1.417-9.679-3.508-23.42a2.273,2.273,0,0,1,3.622-2.156,34.1,34.1,0,0,0,18.034,6.844,2.274,2.274,0,0,1,1.279,4.017C311.431,441.605,308.869,443.763,303,448.7Zm39.468-32.8c-.76.678-1.544,1.318-2.34,1.915l-.05-.064c-.3.252-.6.5-.892.739-.578.4-1.165.787-1.764,1.145a30.431,30.431,0,0,1-5.217,2.548,28.153,28.153,0,0,1-34.664-13.152,30.236,30.236,0,0,1-2.213-5.368c-.211-.665-.395-1.342-.561-2.027-.056-.38-.117-.755-.173-1.143l-.08.014c-.2-.976-.362-1.974-.482-2.986a38.522,38.522,0,0,1-.26-4.624,46.82,46.82,0,0,1,3.188-16.451c7.651-20.164,25.252-30.232,41.853-23.934s23.1,25.509,15.445,45.673a46.818,46.818,0,0,1-8.528,14.426A38.328,38.328,0,0,1,342.471,415.906Z" transform="translate(-271.569 -345.135)" fill="url(#linear-gradient-56)"/>
          <path id="Path_62" data-name="Path 62" d="M277.871,545.23l-5.7-2.163a4.091,4.091,0,0,1-2.324-5.4l17.405-41.686a4.091,4.091,0,0,1,5.226-2.248l2.923,1.108a4.09,4.09,0,0,1,2.419,5.15l-14.627,42.74A4.091,4.091,0,0,1,277.871,545.23Z" transform="translate(-269.529 -374)" fill="url(#linear-gradient-57)"/>
          <path id="Path_63" data-name="Path 63" d="M299.743,422.611l-7.69-2.918q-.35-2.265-.726-4.733c-.006-.024-.01-.052-.015-.076l6.218,2.359A30.238,30.238,0,0,0,299.743,422.611Z" transform="translate(-273.768 -358.708)" fill="url(#linear-gradient-58)"/>
          <path id="Path_64" data-name="Path 64" d="M356.255,440c-.022.018-.047.034-.068.052q-1.923,1.6-3.674,3.056l-7.693-2.919a30.435,30.435,0,0,0,5.217-2.548Z" transform="translate(-284.181 -363.137)" fill="url(#linear-gradient-59)"/>
          <path id="Path_65" data-name="Path 65" d="M295.779,403.949a38.528,38.528,0,0,0,.26,4.624l-5.66-2.148a45.014,45.014,0,0,1-.027-4.535Z" transform="translate(-273.573 -356.18)" fill="#fff"/>
          <path id="Path_66" data-name="Path 66" d="M366.252,430.983q-1.447,1.778-3.028,3.375l-5.661-2.148a38.319,38.319,0,0,0,3.261-3.287Z" transform="translate(-286.661 -361.44)" fill="#fff"/>
        </g>
        <g id="Group_41" data-name="Group 41">
          <rect id="Rectangle_7" data-name="Rectangle 7" width="5.225" height="82.779" transform="matrix(0.889, -0.457, 0.457, 0.889, 60.69, 85.288)" fill="url(#linear-gradient-60)"/>
          <g id="Group_39" data-name="Group 39" transform="translate(2.465 2.464)">
            <g id="Group_37" data-name="Group 37" transform="translate(0.467)">
              <path id="Path_67" data-name="Path 67" d="M205.16,372.071l.276.537,2.449,4.76,2.723,5.294,2.723,5.294,2.723,5.294,2.723,5.294,2.723,5.293,2.723,5.294,2.723,5.294,2.723,5.294,2.449,4.76.275.534" transform="translate(-205.16 -342.157)" fill="none" stroke="#96a3bc" stroke-linecap="round" stroke-linejoin="round" stroke-width="0.931"/>
              <path id="Path_68" data-name="Path 68" d="M208.7,362.8l2.442,4.747,2.725,5.3,2.723,5.294,2.723,5.294,2.723,5.294,2.723,5.294,2.723,5.294,2.723,5.294,2.723,5.293,2.723,5.294,2.723,5.294,2.444,4.75" transform="translate(-205.848 -340.352)" fill="none" stroke="#96a3bc" stroke-linecap="round" stroke-linejoin="round" stroke-width="0.931"/>
              <path id="Path_69" data-name="Path 69" d="M213.118,355.218l4.18,8.125,2.725,5.3,2.723,5.294,2.723,5.294,2.723,5.293,2.723,5.294,2.723,5.294,2.723,5.294,2.723,5.294,2.723,5.294,2.723,5.294,4.182,8.129" transform="translate(-206.708 -338.877)" fill="none" stroke="#96a3bc" stroke-linecap="round" stroke-linejoin="round" stroke-width="0.931"/>
              <path id="Path_70" data-name="Path 70" d="M218.34,349.21l5.268,10.24,2.725,5.3,2.723,5.294,2.723,5.294,2.723,5.294,2.723,5.294,2.723,5.293,2.723,5.294L245.4,401.8l2.723,5.294,2.723,5.294,5.27,10.244" transform="translate(-207.724 -337.708)" fill="none" stroke="#96a3bc" stroke-linecap="round" stroke-linejoin="round" stroke-width="0.931"/>
              <path id="Path_71" data-name="Path 71" d="M224.18,344.4l5.859,11.388,2.725,5.3,2.723,5.294,2.723,5.293,2.723,5.294,2.723,5.294,2.723,5.294,2.723,5.294,2.723,5.293,2.723,5.294,2.723,5.294,5.86,11.391" transform="translate(-208.861 -336.773)" fill="none" stroke="#96a3bc" stroke-linecap="round" stroke-linejoin="round" stroke-width="0.931"/>
              <path id="Path_72" data-name="Path 72" d="M230.522,340.576l6.044,11.748,2.725,5.3,2.723,5.294,2.723,5.294,2.723,5.294,2.723,5.293,2.723,5.294,2.723,5.294,2.723,5.294,2.723,5.293,2.723,5.294,6.046,11.751" transform="translate(-210.095 -336.028)" fill="none" stroke="#96a3bc" stroke-linecap="round" stroke-linejoin="round" stroke-width="0.931"/>
              <path id="Path_73" data-name="Path 73" d="M237.325,337.641l5.859,11.388,2.725,5.3,2.723,5.293,2.723,5.294,2.723,5.294L256.8,375.5l2.723,5.294,2.723,5.293,2.723,5.294,2.723,5.294,2.723,5.294,5.86,11.391" transform="translate(-211.419 -335.457)" fill="none" stroke="#96a3bc" stroke-linecap="round" stroke-linejoin="round" stroke-width="0.931"/>
              <path id="Path_74" data-name="Path 74" d="M244.63,335.685l5.268,10.24,2.725,5.3,2.723,5.294,2.723,5.294,2.723,5.293,2.723,5.294,2.723,5.294,2.723,5.294,2.723,5.294,2.724,5.293,2.723,5.294,5.27,10.244" transform="translate(-212.84 -335.076)" fill="none" stroke="#96a3bc" stroke-linecap="round" stroke-linejoin="round" stroke-width="0.931"/>
              <path id="Path_75" data-name="Path 75" d="M252.554,334.929l4.18,8.125,2.725,5.3,2.723,5.294,2.723,5.294,2.723,5.294,2.723,5.294,2.723,5.294,2.723,5.294,2.723,5.294,2.723,5.294,2.723,5.294,4.182,8.129" transform="translate(-214.382 -334.929)" fill="none" stroke="#96a3bc" stroke-linecap="round" stroke-linejoin="round" stroke-width="0.931"/>
              <path id="Path_76" data-name="Path 76" d="M261.285,335.743l2.442,4.747,2.725,5.3,2.723,5.294,2.723,5.293,2.723,5.294,2.723,5.294,2.723,5.294,2.723,5.294,2.723,5.293,2.723,5.294,2.723,5.294,2.444,4.75" transform="translate(-216.081 -335.087)" fill="none" stroke="#96a3bc" stroke-linecap="round" stroke-linejoin="round" stroke-width="0.931"/>
              <path id="Path_77" data-name="Path 77" d="M270.889,338.255l.275.534,2.451,4.763,2.723,5.294,2.723,5.294,2.723,5.294,2.723,5.293,2.723,5.294,2.723,5.294,2.723,5.294L295.4,385.9l2.451,4.763.273.53" transform="translate(-217.951 -335.576)" fill="none" stroke="#96a3bc" stroke-linecap="round" stroke-linejoin="round" stroke-width="0.931"/>
            </g>
            <g id="Group_38" data-name="Group 38" transform="translate(0 2.679)">
              <path id="Path_78" data-name="Path 78" d="M258.1,338.255l-.43.221-4.863,2.5-5.294,2.723-5.294,2.723-5.294,2.723-5.293,2.723-5.294,2.723-5.294,2.723-5.294,2.723-5.3,2.725-4.86,2.5-.434.223" transform="translate(-204.693 -338.255)" fill="none" stroke="#96a3bc" stroke-linecap="round" stroke-linejoin="round" stroke-width="0.931"/>
              <path id="Path_79" data-name="Path 79" d="M263.906,342.79l-3.2,1.644-5.294,2.723-5.294,2.723L244.83,352.6l-5.294,2.723-5.293,2.723-5.294,2.723-5.294,2.723-5.294,2.723-5.3,2.725-5.294,2.723-3.192,1.642" transform="translate(-204.58 -339.137)" fill="none" stroke="#96a3bc" stroke-linecap="round" stroke-linejoin="round" stroke-width="0.931"/>
              <path id="Path_80" data-name="Path 80" d="M269.144,347.8l-5.644,2.9-5.294,2.723-5.293,2.723-5.294,2.723-5.294,2.723-5.294,2.723-5.294,2.723-5.293,2.723-5.294,2.723-5.3,2.725-5.294,2.723-5.64,2.9" transform="translate(-204.646 -340.112)" fill="none" stroke="#96a3bc" stroke-linecap="round" stroke-linejoin="round" stroke-width="0.931"/>
              <path id="Path_81" data-name="Path 81" d="M273.732,353.355l-7.235,3.722L261.2,359.8l-5.294,2.723-5.294,2.723-5.294,2.723-5.294,2.724-5.294,2.723-5.294,2.723-5.294,2.723-5.3,2.725-5.294,2.723-7.232,3.72" transform="translate(-204.92 -341.193)" fill="none" stroke="#96a3bc" stroke-linecap="round" stroke-linejoin="round" stroke-width="0.931"/>
              <path id="Path_82" data-name="Path 82" d="M277.789,359.359l-8.125,4.18-5.294,2.723-5.293,2.723-5.294,2.723-5.294,2.723-5.294,2.723L237.9,379.88l-5.294,2.723-5.294,2.723-5.3,2.725-5.294,2.723-8.122,4.179" transform="translate(-205.363 -342.362)" fill="none" stroke="#96a3bc" stroke-linecap="round" stroke-linejoin="round" stroke-width="0.931"/>
              <path id="Path_83" data-name="Path 83" d="M281.388,365.748l-8.412,4.328-5.294,2.723-5.294,2.723-5.294,2.723L251.8,380.97l-5.294,2.723-5.294,2.723-5.294,2.723-5.293,2.723-5.3,2.725-5.293,2.723-8.409,4.326" transform="translate(-205.951 -343.605)" fill="none" stroke="#96a3bc" stroke-linecap="round" stroke-linejoin="round" stroke-width="0.931"/>
              <path id="Path_84" data-name="Path 84" d="M284.552,372.5l-8.126,4.18-5.293,2.723-5.294,2.723-5.294,2.723-5.294,2.723-5.294,2.723-5.294,2.723-5.294,2.723-5.294,2.723-5.3,2.725-5.294,2.723-8.122,4.179" transform="translate(-206.679 -344.92)" fill="none" stroke="#96a3bc" stroke-linecap="round" stroke-linejoin="round" stroke-width="0.931"/>
              <path id="Path_85" data-name="Path 85" d="M287.258,379.645l-7.235,3.722-5.294,2.724-5.294,2.723-5.293,2.723-5.294,2.723-5.294,2.723-5.294,2.723-5.294,2.723-5.294,2.723-5.3,2.725-5.294,2.723-7.232,3.72" transform="translate(-207.552 -346.309)" fill="none" stroke="#96a3bc" stroke-linecap="round" stroke-linejoin="round" stroke-width="0.931"/>
              <path id="Path_86" data-name="Path 86" d="M289.433,387.234l-5.644,2.9-5.294,2.723-5.294,2.723-5.294,2.723-5.294,2.723-5.293,2.723-5.294,2.723-5.294,2.723-5.294,2.723-5.3,2.725-5.294,2.723-5.64,2.9" transform="translate(-208.594 -347.786)" fill="none" stroke="#96a3bc" stroke-linecap="round" stroke-linejoin="round" stroke-width="0.931"/>
              <path id="Path_87" data-name="Path 87" d="M290.958,395.371l-3.2,1.644-5.294,2.723-5.293,2.724-5.294,2.723-5.294,2.723-5.294,2.723L256,413.355l-5.293,2.723-5.294,2.723-5.3,2.725-5.294,2.723-3.192,1.642" transform="translate(-209.844 -349.369)" fill="none" stroke="#96a3bc" stroke-linecap="round" stroke-linejoin="round" stroke-width="0.931"/>
              <path id="Path_88" data-name="Path 88" d="M291.915,403.985l-.427.22-4.867,2.5-5.294,2.723-5.294,2.723-5.293,2.723-5.294,2.723-5.294,2.723-5.294,2.723-5.293,2.723-5.3,2.725-4.863,2.5-.43.221" transform="translate(-211.273 -351.046)" fill="none" stroke="#96a3bc" stroke-linecap="round" stroke-linejoin="round" stroke-width="0.931"/>
            </g>
          </g>
          <g id="Group_40" data-name="Group 40">
            <path id="Path_89" data-name="Path 89" d="M265.319,417.488c-11.009,5.664-22.541,6.375-33.348,2.056-10.105-4.039-18.8-12.343-24.479-23.383s-7.382-22.942-4.793-33.512c2.77-11.3,10.053-20.272,21.062-25.936s22.541-6.375,33.348-2.056c10.105,4.039,18.8,12.343,24.479,23.383s7.381,22.942,4.792,33.511C283.611,402.855,276.328,411.824,265.319,417.488Zm-39.326-76.439c-19.26,9.91-25.084,31.655-14.164,52.881s32,29.131,51.259,19.222,25.085-31.655,14.165-52.881S245.253,331.14,225.993,341.049Z" transform="translate(-201.519 -331.869)" fill="url(#linear-gradient-61)"/>
          </g>
          <rect id="Rectangle_8" data-name="Rectangle 8" width="16.206" height="8.809" rx="4.405" transform="translate(53.464 83.241) rotate(-27.225)" fill="url(#linear-gradient-62)"/>
        </g>
      </g>
      <rect id="Rectangle_9" data-name="Rectangle 9" width="160.042" height="149.436" transform="translate(128.301 300.304)" fill="none"/>
      <g id="Group_52" data-name="Group 52" transform="translate(220.854 418.871)">
        <g id="Group_51" data-name="Group 51" transform="translate(0 0)">
          <path id="Path_90" data-name="Path 90" d="M358.443,488.534a27.116,27.116,0,0,1-12.383,23.042c-.383.25-.773.487-1.168.713s-.769.431-1.164.632c-.205.109-.415.213-.624.31s-.419.2-.628.3a27.123,27.123,0,0,1-37.616-18.762c-.06-.262-.113-.528-.169-.789-.04-.213-.081-.431-.117-.644s-.068-.427-.1-.644-.06-.463-.089-.7c-.056-.467-.1-.934-.133-1.409a27.005,27.005,0,0,1,.652-7.973.015.015,0,0,1,0-.012,27.217,27.217,0,0,1,10.643-15.862c.189-.141.383-.274.572-.4s.387-.258.584-.379.366-.234.552-.346.387-.234.588-.346c.415-.234.842-.463,1.273-.681A27.117,27.117,0,0,1,358.1,484.5c.072.455.137.914.189,1.377.048.431.085.866.109,1.3.012.226.024.451.032.677S358.443,488.3,358.443,488.534Z" transform="translate(-304.191 -461.674)" fill="url(#linear-gradient-63)"/>
          <g id="Group_47" data-name="Group 47" transform="translate(0.194 3.587)">
            <g id="Group_45" data-name="Group 45" transform="translate(11.168)">
              <path id="Path_91" data-name="Path 91" d="M361.19,489.4a19,19,0,0,0-11.907-1.2c-3.406.562-6.934,1.141-12.636-1.743a18.145,18.145,0,0,1-6.358-4.944,23.529,23.529,0,0,1-2.529-4.2c-1.584-3.1-3.215-6.293-9.463-9.724.188-.138.381-.271.572-.4s.387-.257.582-.382.366-.232.551-.346.387-.233.588-.343a21.4,21.4,0,0,1,9.316,10.1,20.818,20.818,0,0,0,2.475,4.045,16.047,16.047,0,0,0,5.358,4.037c5,2.53,7.854,2.056,11.152,1.518a21.071,21.071,0,0,1,12.145.924c.047.431.085.865.106,1.3.014.226.027.453.032.677S361.189,489.171,361.19,489.4Z" transform="translate(-318.297 -466.127)" fill="url(#linear-gradient-64)"/>
            </g>
            <g id="Group_46" data-name="Group 46" transform="translate(0 26.73)">
              <path id="Path_92" data-name="Path 92" d="M344.939,519.615c-.381.221-.768.429-1.163.632-.2.107-.416.212-.623.31s-.419.2-.63.3a20.987,20.987,0,0,1-6.6-8.279c-1.517-2.978-2.83-5.548-7.83-8.077s-7.85-2.059-11.152-1.518c-.652.106-1.322.217-2.02.3a20.084,20.084,0,0,1-10.017-1.189c-.06-.263-.113-.528-.169-.789-.04-.214-.079-.432-.115-.645s-.072-.428-.1-.644-.062-.462-.09-.7a18.842,18.842,0,0,0,11.691,1.35c.146-.022.288-.048.435-.07,3.4-.562,6.925-1.139,12.627,1.745s7.328,6.062,8.9,9.137A18.763,18.763,0,0,0,344.939,519.615Z" transform="translate(-304.431 -499.316)" fill="url(#linear-gradient-65)"/>
            </g>
          </g>
          <g id="Group_50" data-name="Group 50" transform="translate(0.061 2.905)">
            <g id="Group_48" data-name="Group 48" transform="translate(12.455)">
              <path id="Path_93" data-name="Path 93" d="M361.421,487.878a18.808,18.808,0,0,0-11.3-.954c-3.406.561-6.93,1.142-12.632-1.743a18.671,18.671,0,0,1-5.948-4.439,22.061,22.061,0,0,1-2.943-4.7c-1.531-3-3.108-6.088-8.871-9.39.185-.118.366-.232.551-.346s.387-.233.588-.343c.416-.237.843-.463,1.273-.681a21.206,21.206,0,0,1,8.609,9.663,18.653,18.653,0,0,0,2.961,4.606,16.935,16.935,0,0,0,4.868,3.475c5,2.53,7.854,2.06,11.152,1.517a20.955,20.955,0,0,1,11.391.663c.075.457.138.915.192,1.376C361.361,487.012,361.4,487.446,361.421,487.878Z" transform="translate(-319.73 -465.281)" fill="#fff"/>
            </g>
            <g id="Group_49" data-name="Group 49" transform="translate(0 26.001)">
              <path id="Path_94" data-name="Path 94" d="M346.074,518.561c-.382.25-.773.486-1.168.714s-.768.429-1.163.632a20.933,20.933,0,0,1-7.283-8.786c-1.517-2.978-2.83-5.548-7.834-8.077s-7.85-2.06-11.152-1.518c-.682.113-1.38.228-2.112.317a20.585,20.585,0,0,1-10.771-1.523h0c-.035-.213-.068-.427-.1-.643s-.062-.462-.09-.7c-.057-.47-.1-.937-.133-1.411,5.836,2.58,9.223,2.162,12.423,1.645.133-.02.263-.044.4-.064,3.4-.562,6.926-1.142,12.632,1.743s7.324,6.061,8.891,9.141A18.857,18.857,0,0,0,346.074,518.561Z" transform="translate(-304.266 -497.564)" fill="#fff"/>
            </g>
          </g>
        </g>
        <path id="Path_95" data-name="Path 95" d="M357.524,504.346a26.975,26.975,0,0,1-9.467,10.531c-.382.25-.773.486-1.168.714s-.768.429-1.163.632c-.2.107-.416.212-.623.31s-.419.2-.63.3a27.134,27.134,0,0,1-30.02-5.233,33.327,33.327,0,0,1,2.422-12.338c.152-.371.308-.739.47-1.1.227-.515.47-1.019.727-1.517.189-.378.391-.75.6-1.116a33.044,33.044,0,0,1,10.87-11.574q.483-.315.976-.609c.37-.224.737-.435,1.115-.64.348-.19.7-.375,1.053-.552a33.051,33.051,0,0,1,25.036-1.887,27.071,27.071,0,0,1,2.374,7.543c.075.457.138.915.192,1.376.047.431.085.865.106,1.3.014.226.027.453.032.677s.015.451.016.679A26.956,26.956,0,0,1,357.524,504.346Z" transform="translate(-306.188 -464.975)" opacity="0.74" fill="url(#linear-gradient-66)"/>
        <path id="Path_96" data-name="Path 96" d="M348.484,467.65c-14.856-6.467-35.72-2.92-43.4,14.944a27.217,27.217,0,0,1,10.643-15.862c.189-.141.383-.274.572-.4s.387-.258.584-.379.366-.234.552-.346.387-.234.588-.346c.415-.234.842-.463,1.273-.681a27.19,27.19,0,0,1,29.192,3.073Z" transform="translate(-304.364 -461.674)" fill="#fff" opacity="0.28" style="mix-blend-mode: overlay;isolation: isolate"/>
      </g>
      <rect id="Rectangle_10" data-name="Rectangle 10" width="85.317" height="45.199" transform="translate(201.76 404.54)" fill="none"/>
      <g id="Group_59" data-name="Group 59" transform="translate(267.054 274.668)">
        <g id="Group_56" data-name="Group 56" transform="translate(4.703 0)">
          <circle id="Ellipse_5" data-name="Ellipse 5" cx="65.159" cy="65.159" r="65.159" fill="url(#linear-gradient-67)"/>
          <circle id="Ellipse_6" data-name="Ellipse 6" cx="49.839" cy="49.839" r="49.839" transform="translate(15.32 15.32)" fill="url(#linear-gradient-68)"/>
          <g id="Group_55" data-name="Group 55" transform="translate(15.32 15.32)">
            <path id="Path_97" data-name="Path 97" d="M487.338,394.51a49.812,49.812,0,0,0,4.8-7.275l-43.842-23.7,33.048,37.306A49.76,49.76,0,0,0,487.338,394.51Z" transform="translate(-398.457 -313.693)" fill="url(#linear-gradient-69)"/>
            <path id="Path_98" data-name="Path 98" d="M497.808,354.389a49.86,49.86,0,0,0-1.751-8.538L448.3,360.091l49.748,3.011A49.9,49.9,0,0,0,497.808,354.389Z" transform="translate(-398.457 -310.252)" fill="url(#linear-gradient-70)"/>
            <path id="Path_99" data-name="Path 99" d="M479.274,313.9A49.813,49.813,0,0,0,472,309.1l-23.7,43.842L485.6,319.891A49.7,49.7,0,0,0,479.274,313.9Z" transform="translate(-398.457 -303.1)" fill="url(#linear-gradient-71)"/>
            <path id="Path_100" data-name="Path 100" d="M439.153,301.978a49.85,49.85,0,0,0-8.538,1.75l14.24,47.762,3.011-49.748A49.752,49.752,0,0,0,439.153,301.978Z" transform="translate(-395.016 -301.651)" fill="url(#linear-gradient-72)"/>
            <path id="Path_101" data-name="Path 101" d="M398.661,323.539a49.825,49.825,0,0,0-4.8,7.276l43.842,23.7-33.048-37.306A49.748,49.748,0,0,0,398.661,323.539Z" transform="translate(-387.864 -304.679)" fill="url(#linear-gradient-73)"/>
            <path id="Path_102" data-name="Path 102" d="M386.742,368.506a49.86,49.86,0,0,0,1.75,8.539l47.762-14.24-49.748-3.011A49.745,49.745,0,0,0,386.742,368.506Z" transform="translate(-386.414 -312.965)" fill="url(#linear-gradient-74)"/>
            <path id="Path_103" data-name="Path 103" d="M408.3,402.574a49.825,49.825,0,0,0,7.276,4.8l23.7-43.842L401.976,396.58A49.752,49.752,0,0,0,408.3,402.574Z" transform="translate(-389.443 -313.693)" fill="url(#linear-gradient-75)"/>
            <path id="Path_104" data-name="Path 104" d="M453.27,413.044a49.86,49.86,0,0,0,8.539-1.75l-14.24-47.762-3.011,49.748A49.826,49.826,0,0,0,453.27,413.044Z" transform="translate(-397.729 -313.693)" fill="url(#linear-gradient-76)"/>
          </g>
          <circle id="Ellipse_7" data-name="Ellipse 7" cx="29.574" cy="29.574" r="29.574" transform="translate(27.326 82.989) rotate(-70.233)" fill="none" stroke="#707070" stroke-linecap="round" stroke-linejoin="round" stroke-width="3.5"/>
        </g>
        <ellipse id="Ellipse_8" data-name="Ellipse 8" cx="3.274" cy="6.837" rx="3.274" ry="6.837" transform="translate(43.206 23.925)" opacity="0.74" fill="url(#linear-gradient-77)"/>
        <g id="Group_57" data-name="Group 57" transform="translate(7.404 1.889)">
          <line id="Line_25" data-name="Line 25" x1="26.457" y1="13.191" transform="translate(12.619 10.555)" fill="none" stroke="#707070" stroke-linecap="round" stroke-linejoin="round" stroke-width="3"/>
          <path id="Path_105" data-name="Path 105" d="M393.434,300.55l-7.514,1.78-15.174-6.862,11.062-1.361-2.332-9.133,12.629,9.874Z" transform="translate(-370.746 -284.974)" fill="url(#linear-gradient-78)"/>
          <path id="Path_106" data-name="Path 106" d="M393.434,302.757l-7.514,1.78-15.174-6.862,11.062-1.361Z" transform="translate(-370.746 -287.181)" fill="url(#linear-gradient-79)"/>
        </g>
        <ellipse id="Ellipse_9" data-name="Ellipse 9" cx="3.274" cy="6.837" rx="3.274" ry="6.837" transform="translate(35.685 39.669)" opacity="0.74" fill="url(#linear-gradient-77)"/>
        <g id="Group_58" data-name="Group 58" transform="translate(0 40.399)">
          <line id="Line_26" data-name="Line 26" x1="29.129" y2="5.047" transform="translate(10.202 1.152)" fill="none" stroke="#707070" stroke-linecap="round" stroke-linejoin="round" stroke-width="3"/>
          <path id="Path_107" data-name="Path 107" d="M382.842,337.068l-5,5.886-16.289,3.462,8.105-7.65-7.289-5.976,16.024.473Z" transform="translate(-361.553 -332.788)" fill="url(#linear-gradient-81)"/>
          <path id="Path_108" data-name="Path 108" d="M382.842,338.1l-5,5.886-16.289,3.462,8.105-7.65Z" transform="translate(-361.553 -333.822)" fill="url(#linear-gradient-82)"/>
        </g>
      </g>
      <rect id="Rectangle_11" data-name="Rectangle 11" width="118.527" height="139.013" transform="translate(260.032 267.688)" fill="none"/>
      <g id="Group_63" data-name="Group 63" transform="translate(259.887 371.385)">
        <g id="Group_62" data-name="Group 62">
          <path id="Path_109" data-name="Path 109" d="M493.157,472.965q0,1.552-.068,3.089-.048,1.136-.133,2.259a69.725,69.725,0,0,1-6.544,24.722q-.453.967-.942,1.913a70.3,70.3,0,0,1-95.17,30.259c-1.051-.552-2.09-1.132-3.109-1.732a70.229,70.229,0,0,1-34.532-59.616c0-.3,0-.6,0-.894,0-.54.008-1.075.02-1.611a69.938,69.938,0,0,1,2.15-15.774v0c.226-.89.467-1.768.729-2.642.447-1.518.95-3.012,1.5-4.486q.4-1.087.846-2.154v0a70.121,70.121,0,0,1,12.749-20.272q.67-.749,1.365-1.478a70.072,70.072,0,0,1,44.325-21.524s0,0,.008,0c1.937-.177,3.9-.282,5.879-.3.226,0,.451,0,.681,0a69.927,69.927,0,0,1,33.259,8.356q2.984,1.6,5.783,3.479,1.776,1.19,3.471,2.485a70.241,70.241,0,0,1,27.738,55.931Z" transform="translate(-352.655 -402.714)" fill="url(#linear-gradient-83)"/>
          <path id="Path_110" data-name="Path 110" d="M384.219,448.474a117.167,117.167,0,0,0-3.636,16.881c1.039.1,2.114.23,3.23.379,1.7.229,3.33.5,4.9.826,12.528,2.529,21.379,7.74,31.451,13.68,14.92,8.791,31.765,18.713,66.244,22.8q-.453.967-.942,1.913c-34.423-4.176-51.328-14.143-66.325-22.978-10.072-5.936-18.911-11.143-31.459-13.567-1.337-.258-2.714-.483-4.144-.677q-1.673-.224-3.226-.379-.344,2.706-.576,5.453a134.592,134.592,0,0,0,1.607,35.1,96.138,96.138,0,0,0,8.952,27.3c-1.051-.552-2.09-1.132-3.109-1.732a101.537,101.537,0,0,1-7.824-25.209,136.873,136.873,0,0,1-1.381-38.3c.1-.93.205-1.856.322-2.779-.842-.056-1.659-.1-2.448-.125-12.1-.391-18.1,3.008-23.2,6.8,0-.3,0-.6,0-.894,0-.54.008-1.075.02-1.611,4.877-3.455,10.772-6.391,21.436-6.351,1.4,0,2.887.064,4.462.177a119.086,119.086,0,0,1,3.717-17.28c.081-.274.165-.548.246-.818a145.819,145.819,0,0,0-25.483,1.365q.4-1.087.846-2.154v0a150.782,150.782,0,0,1,25.265-1.192,95.117,95.117,0,0,1,4.929-12.258c-10.136-.805-14.356-3.793-17.445-6.822q.67-.749,1.365-1.478c3.008,2.952,6.955,5.694,17.062,6.347a70.045,70.045,0,0,1,12.306-17.095,54.67,54.67,0,0,1,14.956-10.776s0,0,.008,0c1.937-.177,3.9-.282,5.879-.3-15.113,5.38-24.778,16.889-30.875,28.253,8.65,0,17.956-3.576,27.774-7.357,13-5,27.15-10.446,42.823-9.065q1.776,1.19,3.471,2.485c-16.748-2.63-31.817,3.169-45.57,8.461-10,3.846-19.467,7.49-28.479,7.49-.35,0-.7,0-1.055-.02a92.966,92.966,0,0,0-5.054,12.21c5.795.238,11.8.745,17.948,1.514a254.478,254.478,0,0,1,30.678,5.8c22.374,5.646,42.8,13.845,59.2,23.566q-.048,1.136-.133,2.259c-16.37-9.854-36.952-18.17-59.559-23.872a252.63,252.63,0,0,0-31.846-5.936c-5.8-.689-11.465-1.14-16.929-1.349C384.48,447.6,384.348,448.043,384.219,448.474Z" transform="translate(-352.655 -402.715)" fill="#601d03"/>
          <path id="Path_111" data-name="Path 111" d="M456.689,411.07c-41.808-12.359-89.746,7.675-101.339,44.506.226-.89.467-1.768.729-2.642.447-1.518.95-3.012,1.5-4.486q.4-1.087.846-2.154v0a70.122,70.122,0,0,1,12.749-20.272q.67-.749,1.365-1.478a70.072,70.072,0,0,1,44.325-21.524s0,0,.008,0c1.937-.177,3.9-.282,5.879-.3.225,0,.451,0,.681,0A69.927,69.927,0,0,1,456.689,411.07Z" transform="translate(-353.179 -402.714)" fill="#fff" opacity="0.28"/>
        </g>
        <path id="Path_112" data-name="Path 112" d="M493.157,478.231q0,1.552-.068,3.089-.048,1.136-.133,2.259a69.725,69.725,0,0,1-6.544,24.722q-.453.967-.942,1.913a70.3,70.3,0,0,1-95.17,30.259c-1.051-.552-2.09-1.132-3.109-1.732a70.229,70.229,0,0,1-34.532-59.616c0-.3,0-.6,0-.894,0-.54.008-1.075.02-1.611a69.865,69.865,0,0,1,2.879-18.419,43.631,43.631,0,0,1,18.556,12.069c.624.689,1.2,1.373,1.748,2.054q1.184,1.486,2.126,2.9c.669.995,1.252,1.949,1.756,2.839l.062.11a3.171,3.171,0,0,0,5.616-.147c.643-1.306,1.4-2.773,2.267-4.36q.489-.894,1.031-1.844a108.617,108.617,0,0,1,12.834-18.053c.544-.608,1.091-1.216,1.659-1.816,15.492-16.571,40.181-30.533,75.6-16.269A69.932,69.932,0,0,1,493.157,478.231Z" transform="translate(-352.655 -407.98)" opacity="0.74" fill="url(#linear-gradient-84)"/>
      </g>
      <rect id="Rectangle_12" data-name="Rectangle 12" width="128.428" height="81.532" transform="translate(250.131 368.207)" fill="none"/>
    </g>
  </g>
</svg>
