<svg xmlns="http://www.w3.org/2000/svg" xmlns:xlink="http://www.w3.org/1999/xlink" width="200" height="200" viewBox="0 0 200 200">
  <defs>
    <clipPath id="clip-Artboard_1">
      <rect width="200" height="200"/>
    </clipPath>
  </defs>
  <g id="Artboard_1" data-name="Artboard 1" clip-path="url(#clip-Artboard_1)">
    <rect width="200" height="200" fill="rgba(255,255,255,0)"/>
    <g id="Group_12" data-name="Group 12" transform="translate(-289.207 -27.574)">
      <path id="Path_52" data-name="Path 52" d="M386.3,46.574a78.866,78.866,0,1,0,78.866,78.867A78.866,78.866,0,0,0,386.3,46.574Z" transform="translate(3.401 0)" fill="#fff" fill-rule="evenodd"/>
      <g id="Group_11" data-name="Group 11" transform="translate(292.207 64.535)">
        <path id="Path_53" data-name="Path 53" d="M448.816,133.969c-.033-1.562-.1-3.433-.2-5.183-.113-2-.262-3.87-.447-5a50.5,50.5,0,0,0-1.063-4.94c-11.7-2.405-43.268-7.987-117.136-7.727a51.584,51.584,0,0,0-4.447,19.458c35.609-1.2,86.678,1.086,123.289,3.389Zm-20.524,51.167,2.187,8.133-5.027,1.344-2.483-9.243H393.541l4.883,17.825L393.4,204.54l-5.242-19.169a2.606,2.606,0,0,1-2.493-1.981l-4.288-12.773a2.6,2.6,0,0,1,2.463-3.422v-.007H386.2c-4.738-6.906-12.044-11.561-20.281-14.863-9.82-3.934-21.009-5.974-30.873-7.585a11.157,11.157,0,0,1-5.24-2.035,4.021,4.021,0,0,1-1.5-2.687,3.822,3.822,0,0,1,1.132-3.1,7.5,7.5,0,0,1,2.061-1.459q-12.882-.451-26.067-.792c-10.558-.274-6.735.142-13.22-.779,6.457-1.576,16.251-2.558,28.1-3.1.385-16.436,7.827-31.272,19.663-42.082a69.375,69.375,0,0,1,40.9-17.6,10.486,10.486,0,0,1,3.435-6.767,12.172,12.172,0,0,1,16.187,0,10.408,10.408,0,0,1,3.482,7.713,2.611,2.611,0,0,1-.1.711,69.01,69.01,0,0,1,26.806,12.813c11.907,9.355,20.183,22.486,22.624,37.383.216,1.331.388,3.39.508,5.546.115,2.047.19,4.156.224,5.8,11.063.723,20.558,1.431,27.53,2.02a4.851,4.851,0,1,1-.968,9.654c-15.56-1.715-30.751-3.2-45.768-4.475-.506,2.132-3.142,4.506-6.193,7.25-3.5,3.145-7.68,6.911-8.584,9.44a12.779,12.779,0,0,0-.443,4.229,44.216,44.216,0,0,0,.406,4.766h3.731a2.606,2.606,0,0,1,2.549,2.07l3.44,12.836a2.6,2.6,0,0,1-1.442,3.043Zm17.976-69.112c-12.7-2.529-44.477-7.69-115.055-7.5a56.464,56.464,0,0,1,12.258-15.971,66.234,66.234,0,0,1,83.99-2.887,56,56,0,0,1,18.806,26.36Zm-30.3,64.135-1.752-7.76H387.451l2.6,7.76Zm.91-7.76,1.754,7.76h5.2l-2.079-7.76Zm-24.567-5.212h22.46c-.19-1.55-.318-3.137-.351-4.664a17.7,17.7,0,0,1,.728-6.083c1.343-3.758,6.067-8.008,10.008-11.556,2.466-2.22,4.686-3.255,4.609-3.669a.935.935,0,0,0-.038-.142q-2.642-.218-5.284-.428a90.906,90.906,0,0,0-11.551,3.482l-.707.246,0,0-.009,0c-.744.258-1.7.62-2.6.96-3.414,1.293-6.1,2.309-9.738,1.978a2.594,2.594,0,0,1-1.812-.053q-.626-.253-1.337-.516c-.781-.207-1.611-.466-2.5-.788a2.559,2.559,0,0,1-.5-.242A188.542,188.542,0,0,0,362.9,139.12c-10.347-1.336-20.355-1.683-26.566.055-.4.11-.75.218-1.069.323.2.04.4.077.617.113,10.142,1.658,21.667,3.761,31.971,7.89,10.224,4.1,19.2,10.164,24.46,19.688Zm5.809-25.462c3.872.921,6.309,0,9.623-1.256.7-.264,1.432-.543,2.45-.9q-12.633-.907-25.245-1.643a129.3,129.3,0,0,1,13.171,3.8Zm.635-69.976a5.276,5.276,0,0,0-1.764-3.567,7,7,0,0,0-9.182,0,5.4,5.4,0,0,0-1.622,2.657c.33,0,.658-.007.989-.007A73.127,73.127,0,0,1,398.752,71.749Z" transform="translate(-292.207 -61.255)" fill="#581200" fill-rule="evenodd"/>
        <path id="Path_54" data-name="Path 54" d="M380.05,73.342a64.665,64.665,0,0,0-43.7,16.51,56.464,56.464,0,0,0-12.258,15.971c70.577-.188,102.354,4.973,115.054,7.5a56,56,0,0,0-18.806-26.36A65.1,65.1,0,0,0,380.05,73.342Z" transform="translate(-285.084 -58.555)" fill="#c4c4c4" fill-rule="evenodd"/>
        <path id="Path_55" data-name="Path 55" d="M441.026,109.746c-11.7-2.405-43.267-7.988-117.136-7.727a51.584,51.584,0,0,0-4.447,19.458c35.609-1.2,86.678,1.086,123.289,3.389-.033-1.562-.1-3.433-.2-5.183-.113-2-.262-3.87-.447-5A50.493,50.493,0,0,0,441.026,109.746Z" transform="translate(-286.123 -52.151)" fill="#999a9a" fill-rule="evenodd"/>
        <path id="Path_56" data-name="Path 56" d="M370.013,69.88a73.127,73.127,0,0,1,11.579.918,5.276,5.276,0,0,0-1.764-3.567,7,7,0,0,0-9.181,0,5.4,5.4,0,0,0-1.622,2.657C369.354,69.883,369.682,69.88,370.013,69.88Z" transform="translate(-275.047 -60.304)" fill="#c4c4c4" fill-rule="evenodd"/>
        <path id="Path_57" data-name="Path 57" d="M391.972,133.3a2.594,2.594,0,0,1-1.812-.053q-.626-.253-1.337-.516c-.781-.207-1.611-.466-2.5-.788a2.563,2.563,0,0,1-.5-.242,188.539,188.539,0,0,0-30.791-6.594c-10.347-1.336-20.355-1.683-26.566.055-.4.11-.75.218-1.069.323.2.04.4.077.617.113,10.142,1.658,21.667,3.761,31.971,7.89,10.224,4.1,19.2,10.164,24.46,19.688h22.46c-.19-1.55-.318-3.137-.351-4.664a17.7,17.7,0,0,1,.728-6.083c1.343-3.758,6.067-8.008,10.009-11.556,2.466-2.22,4.686-3.255,4.608-3.669a.928.928,0,0,0-.038-.142q-2.643-.218-5.284-.428a90.915,90.915,0,0,0-11.551,3.482l-.71.242-.009,0c-.744.258-1.7.62-2.6.96C398.3,132.616,395.614,133.631,391.972,133.3Z" transform="translate(-284.346 -47.243)" fill="#edcbab" fill-rule="evenodd"/>
        <path id="Path_58" data-name="Path 58" d="M396.822,152.1H370.06l2.6,7.76h25.911Z" transform="translate(-274.816 -40.96)" fill="#fff" fill-rule="evenodd"/>
        <path id="Path_59" data-name="Path 59" d="M394.111,152.1l1.754,7.76h5.2l-2.079-7.76Z" transform="translate(-269.443 -40.96)" fill="#fff" fill-rule="evenodd"/>
        <path id="Path_60" data-name="Path 60" d="M387.3,149.634h.149s-.193.776-.149,0Zm12.008-17.51c-4.689,3.861-10.48,6.205-11.442,12.961-.4,2.753-.537,4.018-.565,4.55H372.483a35.847,35.847,0,0,1,1.893,3.057h22.46c-.19-1.55-.318-3.137-.351-4.664a17.7,17.7,0,0,1,.728-6.083c1.343-3.758,6.067-8.008,10.008-11.556,2.466-2.22,4.686-3.255,4.609-3.669a.935.935,0,0,0-.038-.142q-2.642-.218-5.284-.428a64.305,64.305,0,0,0-7.869,2.217C401.12,128.791,402.109,129.819,399.308,132.124Z" transform="translate(-274.275 -46.758)" fill="#df9f75" fill-rule="evenodd"/>
        <path id="Path_61" data-name="Path 61" d="M422.619,108.942c-4.127-.849-10.723-2.092-20.778-3.335a103.949,103.949,0,0,1,3.154,17.323c6.751.367,13.242.75,19.331,1.132-.033-1.562-.1-3.433-.2-5.183-.113-2-.262-3.87-.447-5A50.5,50.5,0,0,0,422.619,108.942Z" transform="translate(-267.716 -51.347)" fill="#999a9a" fill-rule="evenodd"/>
        <path id="Path_62" data-name="Path 62" d="M406.542,109.989c9.71,1.17,16.349,2.355,20.727,3.225a56,56,0,0,0-18.806-26.36,64.323,64.323,0,0,0-31.2-13.017C392.332,81.992,401.582,93.964,406.542,109.989Z" transform="translate(-273.206 -58.444)" fill="#999a9a" fill-rule="evenodd"/>
        <path id="Path_63" data-name="Path 63" d="M329.751,98.093c13.888-17.616,25.165-24.969,48.215-22.541-22.571,5.768-28.513,6.407-42.234,26.543a3.6,3.6,0,1,1-5.981-4Z" transform="translate(-283.956 -58.162)" fill="#fff" fill-rule="evenodd"/>
      </g>
      <path id="Path_64" data-name="Path 64" d="M379.215,177.961a78.386,78.386,0,0,0,27.229-7.893l-1.977-7.36H375.038Z" transform="translate(18.503 25.943)" fill="#fff" fill-rule="evenodd"/>
    </g>
  </g>
</svg>
